<svg xmlns="http://www.w3.org/2000/svg" xmlns:xlink="http://www.w3.org/1999/xlink" xmlns:inkscape="http://www.inkscape.org/namespaces/inkscape" version="1.1" width="799" height="577" viewBox="0 0 799 577">
<defs>
<clipPath id="clip_1">
<path transform="matrix(1,0,0,-1,0,577)" d="M57.54 41.04H643.88V549.06H57.54Z"/>
</clipPath>
</defs>
<path transform="matrix(1,0,0,-1,0,577)" d="M-0 0H799.5V577.5H-0Z" fill="#ffffff"/>
<path transform="matrix(1,0,0,-1,0,577)" stroke-width="1.36" stroke-linecap="round" stroke-linejoin="round" fill="none" stroke="#ffffff" d="M-0 0H799.5V577.5H-0Z"/>
<g clip-path="url(#clip_1)">
<path transform="matrix(1,0,0,-1,0,577)" d="M57.54 41.04H643.88V549.06H57.54Z" fill="#ffffff"/>
<path transform="matrix(1,0,0,-1,0,577)" d="M85.02 245.25H249.93V525.98H85.02Z" fill="#eff3ff"/>
<path transform="matrix(1,0,0,-1,0,577)" stroke-width=".43" stroke-linecap="butt" stroke-miterlimit="10" stroke-linejoin="miter" fill="none" stroke="#ffffff" d="M85.02 245.25H249.93V525.98H85.02Z"/>
<path transform="matrix(1,0,0,-1,0,577)" d="M85.02 97.77H249.93V245.25H85.02Z" fill="#bdd7e7"/>
<path transform="matrix(1,0,0,-1,0,577)" stroke-width=".43" stroke-linecap="butt" stroke-miterlimit="10" stroke-linejoin="miter" fill="none" stroke="#ffffff" d="M85.02 97.77H249.93V245.25H85.02Z"/>
<path transform="matrix(1,0,0,-1,0,577)" d="M85.02 73.19H249.93V97.770008H85.02Z" fill="#6baed6"/>
<path transform="matrix(1,0,0,-1,0,577)" stroke-width=".43" stroke-linecap="butt" stroke-miterlimit="10" stroke-linejoin="miter" fill="none" stroke="#ffffff" d="M85.02 73.19H249.93V97.770008H85.02Z"/>
<path transform="matrix(1,0,0,-1,0,577)" d="M85.02 64.13H249.93V73.189998H85.02Z" fill="#2171b5"/>
<path transform="matrix(1,0,0,-1,0,577)" stroke-width=".43" stroke-linecap="butt" stroke-miterlimit="10" stroke-linejoin="miter" fill="none" stroke="#ffffff" d="M85.02 64.13H249.93V73.189998H85.02Z"/>
<path transform="matrix(1,0,0,-1,0,577)" d="M268.26 481.99H433.17V525.97H268.26Z" fill="#eff3ff"/>
<path transform="matrix(1,0,0,-1,0,577)" stroke-width=".43" stroke-linecap="butt" stroke-miterlimit="10" stroke-linejoin="miter" fill="none" stroke="#ffffff" d="M268.26 481.99H433.17V525.97H268.26Z"/>
<path transform="matrix(1,0,0,-1,0,577)" d="M268.26 318.98H433.17V481.98H268.26Z" fill="#bdd7e7"/>
<path transform="matrix(1,0,0,-1,0,577)" stroke-width=".43" stroke-linecap="butt" stroke-miterlimit="10" stroke-linejoin="miter" fill="none" stroke="#ffffff" d="M268.26 318.98H433.17V481.98H268.26Z"/>
<path transform="matrix(1,0,0,-1,0,577)" d="M268.26 152.1H433.17V318.98H268.26Z" fill="#6baed6"/>
<path transform="matrix(1,0,0,-1,0,577)" stroke-width=".43" stroke-linecap="butt" stroke-miterlimit="10" stroke-linejoin="miter" fill="none" stroke="#ffffff" d="M268.26 152.1H433.17V318.98H268.26Z"/>
<path transform="matrix(1,0,0,-1,0,577)" d="M268.26 64.13H433.17V152.1H268.26Z" fill="#2171b5"/>
<path transform="matrix(1,0,0,-1,0,577)" stroke-width=".43" stroke-linecap="butt" stroke-miterlimit="10" stroke-linejoin="miter" fill="none" stroke="#ffffff" d="M268.26 64.13H433.17V152.1H268.26Z"/>
<path transform="matrix(1,0,0,-1,0,577)" d="M451.49 396.6H616.4V525.97H451.49Z" fill="#eff3ff"/>
<path transform="matrix(1,0,0,-1,0,577)" stroke-width=".43" stroke-linecap="butt" stroke-miterlimit="10" stroke-linejoin="miter" fill="none" stroke="#ffffff" d="M451.49 396.6H616.4V525.97H451.49Z"/>
<path transform="matrix(1,0,0,-1,0,577)" d="M451.49 185.74H616.4V396.61H451.49Z" fill="#bdd7e7"/>
<path transform="matrix(1,0,0,-1,0,577)" stroke-width=".43" stroke-linecap="butt" stroke-miterlimit="10" stroke-linejoin="miter" fill="none" stroke="#ffffff" d="M451.49 185.74H616.4V396.61H451.49Z"/>
<path transform="matrix(1,0,0,-1,0,577)" d="M451.49 90H616.4V185.73001H451.49Z" fill="#6baed6"/>
<path transform="matrix(1,0,0,-1,0,577)" stroke-width=".43" stroke-linecap="butt" stroke-miterlimit="10" stroke-linejoin="miter" fill="none" stroke="#ffffff" d="M451.49 90H616.4V185.73001H451.49Z"/>
<path transform="matrix(1,0,0,-1,0,577)" d="M451.49 64.13H616.4V90H451.49Z" fill="#2171b5"/>
<path transform="matrix(1,0,0,-1,0,577)" stroke-width=".43" stroke-linecap="butt" stroke-miterlimit="10" stroke-linejoin="miter" fill="none" stroke="#ffffff" d="M451.49 64.13H616.4V90H451.49Z"/>
</g>
<path transform="matrix(1,0,0,-1,0,577)" stroke-width="1.36" stroke-linecap="square" stroke-linejoin="round" fill="none" stroke="#000000" d="M57.54 41.04V549.06"/>
<text xml:space="preserve" transform="matrix(1 0 -0 1 0 577)" font-size="11" font-family="Nimbus Sans"><tspan y="-60.18" x="35.37 41.486">0%</tspan></text>
<text xml:space="preserve" transform="matrix(1 0 -0 1 0 577)" font-size="11" font-family="Nimbus Sans"><tspan y="-175.64" x="29.25 35.366 41.482004">25%</tspan></text>
<text xml:space="preserve" transform="matrix(1 0 -0 1 0 577)" font-size="11" font-family="Nimbus Sans"><tspan y="-291.1" x="29.25 35.366 41.482004">50%</tspan></text>
<text xml:space="preserve" transform="matrix(1 0 -0 1 0 577)" font-size="11" font-family="Nimbus Sans"><tspan y="-406.56" x="29.25 35.366 41.482004">75%</tspan></text>
<text xml:space="preserve" transform="matrix(1 0 -0 1 0 577)" font-size="11" font-family="Nimbus Sans"><tspan y="-522.02" x="23.14 29.256 35.372 41.488004">100%</tspan></text>
<path transform="matrix(1,0,0,-1,0,577)" stroke-width="1.36" stroke-linecap="butt" stroke-linejoin="round" fill="none" stroke="#000000" d="M54.05 64.13H57.54"/>
<path transform="matrix(1,0,0,-1,0,577)" stroke-width="1.36" stroke-linecap="butt" stroke-linejoin="round" fill="none" stroke="#000000" d="M54.05 179.59H57.54"/>
<path transform="matrix(1,0,0,-1,0,577)" stroke-width="1.36" stroke-linecap="butt" stroke-linejoin="round" fill="none" stroke="#000000" d="M54.05 295.05H57.54"/>
<path transform="matrix(1,0,0,-1,0,577)" stroke-width="1.36" stroke-linecap="butt" stroke-linejoin="round" fill="none" stroke="#000000" d="M54.05 410.51H57.54"/>
<path transform="matrix(1,0,0,-1,0,577)" stroke-width="1.36" stroke-linecap="butt" stroke-linejoin="round" fill="none" stroke="#000000" d="M54.05 525.97H57.54"/>
<path transform="matrix(1,0,0,-1,0,577)" stroke-width="1.36" stroke-linecap="square" stroke-linejoin="round" fill="none" stroke="#000000" d="M57.54 41.04H643.88"/>
<path transform="matrix(1,0,0,-1,0,577)" stroke-width="1.36" stroke-linecap="butt" stroke-linejoin="round" fill="none" stroke="#000000" d="M167.48 37.55V41.04"/>
<path transform="matrix(1,0,0,-1,0,577)" stroke-width="1.36" stroke-linecap="butt" stroke-linejoin="round" fill="none" stroke="#000000" d="M350.71 37.55V41.04"/>
<path transform="matrix(1,0,0,-1,0,577)" stroke-width="1.36" stroke-linecap="butt" stroke-linejoin="round" fill="none" stroke="#000000" d="M533.94 37.55V41.04"/>
<text xml:space="preserve" transform="matrix(1 0 -0 1 0 577)" font-size="11" font-family="Nimbus Sans"><tspan y="-26.86" x="151.44 158.77701 164.893 167.621 173.737 177.4">Before</tspan></text>
<text xml:space="preserve" transform="matrix(1 0 -0 1 0 577)" font-size="11" font-family="Nimbus Sans"><tspan y="-26.86" x="334.43 342.37199 348.48799 352.31599 354.75798 360.87397">During</tspan></text>
<text xml:space="preserve" transform="matrix(1 0 -0 1 0 577)" font-size="11" font-family="Nimbus Sans"><tspan y="-26.86" x="522.33 529.667 532.725 535.78298 541.899">After</tspan></text>
<text xml:space="preserve" transform="matrix(1 0 -0 1 0 577)" font-size="14" font-family="Nimbus Sans" font-weight="bold"><tspan y="-9.97" x="310.85 319.404 323.296 335.742 343.526 347.418 356.336 364.12 369.566 373.458 382.012">Time Period</tspan></text>
<text xml:space="preserve" transform="matrix(0 -1 1 0 0 577)" font-size="14" font-family="Nimbus Sans" font-weight="bold"><tspan y="17.03" x="202.83 211.748 219.532 224.698 232.482 240.26599 248.81999 253.482 261.12599 269.81999 277.60398 281.49598 290.04997 294.71195 298.60395 308.71195 316.49595 324.27995 332.83393 341.3879 349.9419 358.49589 366.27989 374.83387 379.49586">Percentage of Respondents</tspan></text>
<path transform="matrix(1,0,0,-1,0,577)" d="M657.83 242.91H792.53V347.2H657.83Z" fill="#ffffff"/>
<text xml:space="preserve" transform="matrix(1 0 -0 1 0 577)" font-size="14" font-family="Nimbus Sans"><tspan y="-328.07" x="664.8 674.90798 682.69198 685.7999 688.9079 695.9079 699.7999 709.13796 716.92196 724.70596 732.4899 740.2739 744.16598 754.2739 761.2739 769.0579 776.8419">Daily Phone Usage</tspan></text>
<path transform="matrix(1,0,0,-1,0,577)" d="M664.8 301.72H682.08V319H664.8Z" fill="#ffffff"/>
<path transform="matrix(1,0,0,-1,0,577)" d="M665.09 302H681.80007V318.71H665.09Z" fill="#eff3ff"/>
<path transform="matrix(1,0,0,-1,0,577)" stroke-width=".43" stroke-linecap="butt" stroke-miterlimit="10" stroke-linejoin="miter" fill="none" stroke="#ffffff" d="M665.09 302H681.80007V318.71H665.09Z"/>
<path transform="matrix(1,0,0,-1,0,577)" d="M664.8 284.44H682.08V301.72H664.8Z" fill="#ffffff"/>
<path transform="matrix(1,0,0,-1,0,577)" d="M665.09 284.72H681.80007V301.43H665.09Z" fill="#bdd7e7"/>
<path transform="matrix(1,0,0,-1,0,577)" stroke-width=".43" stroke-linecap="butt" stroke-miterlimit="10" stroke-linejoin="miter" fill="none" stroke="#ffffff" d="M665.09 284.72H681.80007V301.43H665.09Z"/>
<path transform="matrix(1,0,0,-1,0,577)" d="M664.8 267.16H682.08V284.44H664.8Z" fill="#ffffff"/>
<path transform="matrix(1,0,0,-1,0,577)" d="M665.09 267.44H681.80007V284.15H665.09Z" fill="#6baed6"/>
<path transform="matrix(1,0,0,-1,0,577)" stroke-width=".43" stroke-linecap="butt" stroke-miterlimit="10" stroke-linejoin="miter" fill="none" stroke="#ffffff" d="M665.09 267.44H681.80007V284.15H665.09Z"/>
<path transform="matrix(1,0,0,-1,0,577)" d="M664.8 249.88H682.08V267.16H664.8Z" fill="#ffffff"/>
<path transform="matrix(1,0,0,-1,0,577)" d="M665.09 250.16H681.80007V266.87H665.09Z" fill="#2171b5"/>
<path transform="matrix(1,0,0,-1,0,577)" stroke-width=".43" stroke-linecap="butt" stroke-miterlimit="10" stroke-linejoin="miter" fill="none" stroke="#ffffff" d="M665.09 250.16H681.80007V266.87H665.09Z"/>
<text xml:space="preserve" transform="matrix(1 0 -0 1 0 577)" font-size="11" font-family="Nimbus Sans"><tspan y="-306.41" x="689.06 695.176 701.60006 704.658 710.77407 713.83206 719.94808 726.0641 732.1801 735.84317">0&#x2212; 4 hours</tspan></text>
<text xml:space="preserve" transform="matrix(1 0 -0 1 0 577)" font-size="11" font-family="Nimbus Sans"><tspan y="-289.13" x="689.06 695.176 701.60006 707.71609 710.77407 718.71609 724.8321 730.9481 734.61117">4&#x2212;8 Hours</tspan></text>
<text xml:space="preserve" transform="matrix(1 0 -0 1 0 577)" font-size="11" font-family="Nimbus Sans"><tspan y="-271.85" x="689.06 695.176 701.60006 704.658 710.77407 716.8901 719.94808 726.0641 732.1801 738.29617 741.95919">8&#x2212; 11 hours</tspan></text>
<text xml:space="preserve" transform="matrix(1 0 -0 1 0 577)" font-size="11" font-family="Nimbus Sans"><tspan y="-254.57" x="689.06 696.397 702.513 708.46408 713.689 719.80508 722.86306 728.97909 735.0951 738.1531 744.2691 750.38516 756.50119 760.1642">Above 11 hours</tspan></text>
<text xml:space="preserve" transform="matrix(1 0 -0 1 0 577)" font-size="16" font-family="Nimbus Sans" font-weight="bold"><tspan y="-559.04" x="57.54 67.316 71.764 81.54 91.316 97.54 106.436008 110.884 119.78001 124.228008 128.67601 140.22801 150.00402 158.90001 168.67601 178.61202 187.50801 196.404 200.852 205.3 215.076 219.524 231.076 239.972 244.42 248.62799 257.524 261.972 272.64399 282.41999 292.19599 301.972 310.86799 315.31599 326.86799 335.76399 344.49998 354.43598 363.33198 367.77998 379.33198 388.22798 393.23597 403.01197 409.23597 418.29197 422.73997 427.18797 438.73997 448.51597 454.73997 459.18797 468.96397 478.73997 483.18797 487.63597 496.53196 506.30796 516.0839 520.5319 532.0839 537.4119 542.7399 551.6359 557.8599 562.3079 567.6359 577.4119 586.3079 590.7559 602.3079 613.95596 624.6279 629.0759 640.6279 649.9719 658.8679 667.7639 672.2119 682.40396 691.2999 701.0759 710.8519 719.7479 733.9719 738.4199">Figure 4. Changes in Daily Phone Usage Before, During, and After the COVID&#x2212;19 Pandemic</tspan></text>
</svg>
