<svg xmlns="http://www.w3.org/2000/svg" xmlns:xlink="http://www.w3.org/1999/xlink" xmlns:inkscape="http://www.inkscape.org/namespaces/inkscape" version="1.1" width="677" height="577" viewBox="0 0 677 577">
<defs>
<clipPath id="clip_1">
<path transform="matrix(1,0,0,-1,0,577)" d="M50.79 41.04H670.27999V531.22H50.79Z"/>
</clipPath>
</defs>
<path transform="matrix(1,0,0,-1,0,577)" d="M-0 0H677.25V577.5H-0Z" fill="#ffffff"/>
<path transform="matrix(1,0,0,-1,0,577)" stroke-width="1.36" stroke-linecap="round" stroke-linejoin="round" fill="none" stroke="#ffffff" d="M-0 0H677.25V577.5H-0Z"/>
<g clip-path="url(#clip_1)">
<path transform="matrix(1,0,0,-1,0,577)" d="M50.79 41.04H670.27999V531.22H50.79Z" fill="#ffffff"/>
<path transform="matrix(1,0,0,-1,0,577)" d="M78.95 502.5 135.26 508.94 191.58 504.18 247.9 306.9 304.22 301.74 360.53 303.5 416.85 299.01 473.17 300.95 529.48 300.17 585.8 298.94 642.12 293.29V71.2L585.8 63.32 529.48 70.81 473.17 67.59 416.85 69.6 360.53 71.46 304.22 70.06 247.9 76.77 191.58 274.29 135.26 276.85 78.95 264.52Z" fill="#2c7fb8" fill-opacity=".149"/>
<path transform="matrix(1,0,0,-1,0,577)" stroke-width="3.41" stroke-linecap="butt" stroke-linejoin="round" fill="none" stroke="#1b4965" d="M78.95 383.51 135.26 392.9 191.58 389.24 247.9 191.83 304.22 185.9 360.53 187.48 416.85 184.31 473.17 184.27 529.48 185.49 585.8 181.13 642.12 182.24"/>
<path transform="matrix(1,0,0,-1,0,577)" stroke-width="2.13" stroke-linecap="butt" stroke-dasharray="8.54,8.54" stroke-linejoin="round" fill="none" stroke="#333333" d="M78.95 409.75 86.08 405.09 93.21 400.26 100.33 395.25 107.46 390.07 114.59 384.71 121.72 379.17 128.85 373.46 135.98 367.57 143.11 361.36 150.24 354.8 157.36 347.98 164.49 341 171.62 333.93 178.75 326.89 185.88 319.95 193.01 313.19 200.14 305.87 207.26 297.8 214.39 289.24 221.52 280.46 228.65 271.72 235.78 263.27 242.91 255.38 250.04 248.2 257.17 240.38 264.29 231.73 271.42 222.68 278.55 213.63 285.68 205 292.81 197.21 299.94 190.67 307.07 185.75 314.2 182.27 321.32 179.9 328.45 178.36 335.58 177.39 342.71 176.68 349.84 175.98 356.97 175 364.1 173.77 371.23 173.86 378.35 175.16 385.48 177.26 392.61 179.72 399.74 182.12 406.87 184.06 414 185.09 421.13 185.1 428.26 185.02 435.38 184.97 442.51 184.93 449.64 184.89 456.77 184.85 463.9 184.8 471.03 184.71 478.16 184.6 485.29 184.48 492.41 184.35 499.54 184.22 506.67 184.08 513.8 183.95 520.93 183.82 528.06 183.7 535.19 183.59 542.32 183.47 549.44 183.36 556.57 183.24 563.7 183.13 570.83 183.01 577.96 182.89 585.09 182.77 592.22 182.65 599.35 182.52 606.47 182.4 613.6 182.27 620.73 182.14 627.86 182.01 634.99 181.88 642.12 181.75"/>
<path transform="matrix(1,0,0,-1,0,577)" d="M74.23 383.51C74.23 386.1 76.35 388.23 78.95 388.23 81.54 388.23 83.67 386.1 83.67 383.51 83.67 380.91 81.54 378.79 78.95 378.79 76.35 378.79 74.23 380.91 74.23 383.51" fill="#1b4965"/>
<path transform="matrix(1,0,0,-1,0,577)" stroke-width=".9" stroke-linecap="round" stroke-linejoin="round" fill="none" stroke="#1b4965" d="M74.23 383.51C74.23 386.1 76.35 388.23 78.95 388.23 81.54 388.23 83.67 386.1 83.67 383.51 83.67 380.91 81.54 378.79 78.95 378.79 76.35 378.79 74.23 380.91 74.23 383.51"/>
<path transform="matrix(1,0,0,-1,0,577)" d="M130.55 392.9C130.55 395.49 132.67 397.62 135.26 397.62 137.86 397.62 139.98 395.49 139.98 392.9 139.98 390.3 137.86 388.18 135.26 388.18 132.67 388.18 130.55 390.3 130.55 392.9" fill="#1b4965"/>
<path transform="matrix(1,0,0,-1,0,577)" stroke-width=".9" stroke-linecap="round" stroke-linejoin="round" fill="none" stroke="#1b4965" d="M130.55 392.9C130.55 395.49 132.67 397.62 135.26 397.62 137.86 397.62 139.98 395.49 139.98 392.9 139.98 390.3 137.86 388.18 135.26 388.18 132.67 388.18 130.55 390.3 130.55 392.9"/>
<path transform="matrix(1,0,0,-1,0,577)" d="M186.86 389.24C186.86 391.83 188.99 393.96 191.58 393.96 194.18 393.96 196.3 391.83 196.3 389.24 196.3 386.64 194.18 384.52 191.58 384.52 188.99 384.52 186.86 386.64 186.86 389.24" fill="#1b4965"/>
<path transform="matrix(1,0,0,-1,0,577)" stroke-width=".9" stroke-linecap="round" stroke-linejoin="round" fill="none" stroke="#1b4965" d="M186.86 389.24C186.86 391.83 188.99 393.96 191.58 393.96 194.18 393.96 196.3 391.83 196.3 389.24 196.3 386.64 194.18 384.52 191.58 384.52 188.99 384.52 186.86 386.64 186.86 389.24"/>
<path transform="matrix(1,0,0,-1,0,577)" d="M243.18 191.83C243.18 194.43 245.3 196.55 247.9 196.55 250.49 196.55 252.62 194.43 252.62 191.83 252.62 189.24 250.49 187.12 247.9 187.12 245.3 187.12 243.18 189.24 243.18 191.83" fill="#1b4965"/>
<path transform="matrix(1,0,0,-1,0,577)" stroke-width=".9" stroke-linecap="round" stroke-linejoin="round" fill="none" stroke="#1b4965" d="M243.18 191.83C243.18 194.43 245.3 196.55 247.9 196.55 250.49 196.55 252.62 194.43 252.62 191.83 252.62 189.24 250.49 187.12 247.9 187.12 245.3 187.12 243.18 189.24 243.18 191.83"/>
<path transform="matrix(1,0,0,-1,0,577)" d="M299.5 185.9C299.5 188.5 301.62 190.62 304.22 190.62 306.81 190.62 308.93 188.5 308.93 185.9 308.93 183.3 306.81 181.18 304.22 181.18 301.62 181.18 299.5 183.3 299.5 185.9" fill="#1b4965"/>
<path transform="matrix(1,0,0,-1,0,577)" stroke-width=".9" stroke-linecap="round" stroke-linejoin="round" fill="none" stroke="#1b4965" d="M299.5 185.9C299.5 188.5 301.62 190.62 304.22 190.62 306.81 190.62 308.93 188.5 308.93 185.9 308.93 183.3 306.81 181.18 304.22 181.18 301.62 181.18 299.5 183.3 299.5 185.9"/>
<path transform="matrix(1,0,0,-1,0,577)" d="M355.81 187.48C355.81 190.07 357.94 192.2 360.53 192.2 363.13 192.2 365.25 190.07 365.25 187.48 365.25 184.88 363.13 182.76 360.53 182.76 357.94 182.76 355.81 184.88 355.81 187.48" fill="#1b4965"/>
<path transform="matrix(1,0,0,-1,0,577)" stroke-width=".9" stroke-linecap="round" stroke-linejoin="round" fill="none" stroke="#1b4965" d="M355.81 187.48C355.81 190.07 357.94 192.2 360.53 192.2 363.13 192.2 365.25 190.07 365.25 187.48 365.25 184.88 363.13 182.76 360.53 182.76 357.94 182.76 355.81 184.88 355.81 187.48"/>
<path transform="matrix(1,0,0,-1,0,577)" d="M412.13 184.31C412.13 186.9 414.25 189.03 416.85 189.03 419.45 189.03 421.57 186.9 421.57 184.31 421.57 181.71 419.45 179.59 416.85 179.59 414.25 179.59 412.13 181.71 412.13 184.31" fill="#1b4965"/>
<path transform="matrix(1,0,0,-1,0,577)" stroke-width=".9" stroke-linecap="round" stroke-linejoin="round" fill="none" stroke="#1b4965" d="M412.13 184.31C412.13 186.9 414.25 189.03 416.85 189.03 419.45 189.03 421.57 186.9 421.57 184.31 421.57 181.71 419.45 179.59 416.85 179.59 414.25 179.59 412.13 181.71 412.13 184.31"/>
<path transform="matrix(1,0,0,-1,0,577)" d="M468.45 184.27C468.45 186.87 470.57 188.99 473.17 188.99 475.76 188.99 477.89 186.87 477.89 184.27 477.89 181.68 475.76 179.55 473.17 179.55 470.57 179.55 468.45 181.68 468.45 184.27" fill="#1b4965"/>
<path transform="matrix(1,0,0,-1,0,577)" stroke-width=".9" stroke-linecap="round" stroke-linejoin="round" fill="none" stroke="#1b4965" d="M468.45 184.27C468.45 186.87 470.57 188.99 473.17 188.99 475.76 188.99 477.89 186.87 477.89 184.27 477.89 181.68 475.76 179.55 473.17 179.55 470.57 179.55 468.45 181.68 468.45 184.27"/>
<path transform="matrix(1,0,0,-1,0,577)" d="M524.76 185.49C524.76 188.09 526.89 190.21 529.48 190.21 532.08 190.21 534.2 188.09 534.2 185.49 534.2 182.9 532.08 180.78 529.48 180.78 526.89 180.78 524.76 182.9 524.76 185.49" fill="#1b4965"/>
<path transform="matrix(1,0,0,-1,0,577)" stroke-width=".9" stroke-linecap="round" stroke-linejoin="round" fill="none" stroke="#1b4965" d="M524.76 185.49C524.76 188.09 526.89 190.21 529.48 190.21 532.08 190.21 534.2 188.09 534.2 185.49 534.2 182.9 532.08 180.78 529.48 180.78 526.89 180.78 524.76 182.9 524.76 185.49"/>
<path transform="matrix(1,0,0,-1,0,577)" d="M581.08 181.13C581.08 183.73 583.21 185.85 585.8 185.85 588.4 185.85 590.52 183.73 590.52 181.13 590.52 178.54 588.4 176.41 585.8 176.41 583.21 176.41 581.08 178.54 581.08 181.13" fill="#1b4965"/>
<path transform="matrix(1,0,0,-1,0,577)" stroke-width=".9" stroke-linecap="round" stroke-linejoin="round" fill="none" stroke="#1b4965" d="M581.08 181.13C581.08 183.73 583.21 185.85 585.8 185.85 588.4 185.85 590.52 183.73 590.52 181.13 590.52 178.54 588.4 176.41 585.8 176.41 583.21 176.41 581.08 178.54 581.08 181.13"/>
<path transform="matrix(1,0,0,-1,0,577)" d="M637.4 182.24C637.4 184.84 639.52 186.96 642.12 186.96 644.71 186.96 646.84 184.84 646.84 182.24 646.84 179.65 644.71 177.53 642.12 177.53 639.52 177.53 637.4 179.65 637.4 182.24" fill="#1b4965"/>
<path transform="matrix(1,0,0,-1,0,577)" stroke-width=".9" stroke-linecap="round" stroke-linejoin="round" fill="none" stroke="#1b4965" d="M637.4 182.24C637.4 184.84 639.52 186.96 642.12 186.96 644.71 186.96 646.84 184.84 646.84 182.24 646.84 179.65 644.71 177.53 642.12 177.53 639.52 177.53 637.4 179.65 637.4 182.24"/>
<path transform="matrix(1,0,0,-1,0,577)" stroke-width="1.49" stroke-linecap="butt" stroke-linejoin="round" fill="none" stroke="#1b4965" stroke-opacity=".502" d="M78.95 502.5V264.52"/>
<path transform="matrix(1,0,0,-1,0,577)" stroke-width="1.49" stroke-linecap="butt" stroke-linejoin="round" fill="none" stroke="#1b4965" stroke-opacity=".502" d="M129.63 508.94H140.9"/>
<path transform="matrix(1,0,0,-1,0,577)" stroke-width="1.49" stroke-linecap="butt" stroke-linejoin="round" fill="none" stroke="#1b4965" stroke-opacity=".502" d="M135.26 508.94V276.85"/>
<path transform="matrix(1,0,0,-1,0,577)" stroke-width="1.49" stroke-linecap="butt" stroke-linejoin="round" fill="none" stroke="#1b4965" stroke-opacity=".502" d="M129.63 276.85H140.9"/>
<path transform="matrix(1,0,0,-1,0,577)" stroke-width="1.49" stroke-linecap="butt" stroke-linejoin="round" fill="none" stroke="#1b4965" stroke-opacity=".502" d="M185.95 504.18H197.21"/>
<path transform="matrix(1,0,0,-1,0,577)" stroke-width="1.49" stroke-linecap="butt" stroke-linejoin="round" fill="none" stroke="#1b4965" stroke-opacity=".502" d="M191.58 504.18V274.29"/>
<path transform="matrix(1,0,0,-1,0,577)" stroke-width="1.49" stroke-linecap="butt" stroke-linejoin="round" fill="none" stroke="#1b4965" stroke-opacity=".502" d="M185.95 274.29H197.21"/>
<path transform="matrix(1,0,0,-1,0,577)" stroke-width="1.49" stroke-linecap="butt" stroke-linejoin="round" fill="none" stroke="#1b4965" stroke-opacity=".502" d="M242.27 306.9H253.53"/>
<path transform="matrix(1,0,0,-1,0,577)" stroke-width="1.49" stroke-linecap="butt" stroke-linejoin="round" fill="none" stroke="#1b4965" stroke-opacity=".502" d="M247.9 306.9V76.77"/>
<path transform="matrix(1,0,0,-1,0,577)" stroke-width="1.49" stroke-linecap="butt" stroke-linejoin="round" fill="none" stroke="#1b4965" stroke-opacity=".502" d="M242.27 76.77H253.53"/>
<path transform="matrix(1,0,0,-1,0,577)" stroke-width="1.49" stroke-linecap="butt" stroke-linejoin="round" fill="none" stroke="#1b4965" stroke-opacity=".502" d="M298.58 301.74H309.85"/>
<path transform="matrix(1,0,0,-1,0,577)" stroke-width="1.49" stroke-linecap="butt" stroke-linejoin="round" fill="none" stroke="#1b4965" stroke-opacity=".502" d="M304.22 301.74V70.06"/>
<path transform="matrix(1,0,0,-1,0,577)" stroke-width="1.49" stroke-linecap="butt" stroke-linejoin="round" fill="none" stroke="#1b4965" stroke-opacity=".502" d="M298.58 70.06H309.85"/>
<path transform="matrix(1,0,0,-1,0,577)" stroke-width="1.49" stroke-linecap="butt" stroke-linejoin="round" fill="none" stroke="#1b4965" stroke-opacity=".502" d="M354.9 303.5H366.16"/>
<path transform="matrix(1,0,0,-1,0,577)" stroke-width="1.49" stroke-linecap="butt" stroke-linejoin="round" fill="none" stroke="#1b4965" stroke-opacity=".502" d="M360.53 303.5V71.46"/>
<path transform="matrix(1,0,0,-1,0,577)" stroke-width="1.49" stroke-linecap="butt" stroke-linejoin="round" fill="none" stroke="#1b4965" stroke-opacity=".502" d="M354.9 71.46H366.16"/>
<path transform="matrix(1,0,0,-1,0,577)" stroke-width="1.49" stroke-linecap="butt" stroke-linejoin="round" fill="none" stroke="#1b4965" stroke-opacity=".502" d="M411.22 299.01H422.48"/>
<path transform="matrix(1,0,0,-1,0,577)" stroke-width="1.49" stroke-linecap="butt" stroke-linejoin="round" fill="none" stroke="#1b4965" stroke-opacity=".502" d="M416.85 299.01V69.6"/>
<path transform="matrix(1,0,0,-1,0,577)" stroke-width="1.49" stroke-linecap="butt" stroke-linejoin="round" fill="none" stroke="#1b4965" stroke-opacity=".502" d="M411.22 69.6H422.48"/>
<path transform="matrix(1,0,0,-1,0,577)" stroke-width="1.49" stroke-linecap="butt" stroke-linejoin="round" fill="none" stroke="#1b4965" stroke-opacity=".502" d="M467.53 300.95H478.8"/>
<path transform="matrix(1,0,0,-1,0,577)" stroke-width="1.49" stroke-linecap="butt" stroke-linejoin="round" fill="none" stroke="#1b4965" stroke-opacity=".502" d="M473.17 300.95V67.59"/>
<path transform="matrix(1,0,0,-1,0,577)" stroke-width="1.49" stroke-linecap="butt" stroke-linejoin="round" fill="none" stroke="#1b4965" stroke-opacity=".502" d="M467.53 67.59H478.8"/>
<path transform="matrix(1,0,0,-1,0,577)" stroke-width="1.49" stroke-linecap="butt" stroke-linejoin="round" fill="none" stroke="#1b4965" stroke-opacity=".502" d="M523.85 300.17H535.12"/>
<path transform="matrix(1,0,0,-1,0,577)" stroke-width="1.49" stroke-linecap="butt" stroke-linejoin="round" fill="none" stroke="#1b4965" stroke-opacity=".502" d="M529.48 300.17V70.81"/>
<path transform="matrix(1,0,0,-1,0,577)" stroke-width="1.49" stroke-linecap="butt" stroke-linejoin="round" fill="none" stroke="#1b4965" stroke-opacity=".502" d="M523.85 70.81H535.12"/>
<path transform="matrix(1,0,0,-1,0,577)" stroke-width="1.49" stroke-linecap="butt" stroke-linejoin="round" fill="none" stroke="#1b4965" stroke-opacity=".502" d="M580.17 298.94H591.43"/>
<path transform="matrix(1,0,0,-1,0,577)" stroke-width="1.49" stroke-linecap="butt" stroke-linejoin="round" fill="none" stroke="#1b4965" stroke-opacity=".502" d="M585.8 298.94V63.32"/>
<path transform="matrix(1,0,0,-1,0,577)" stroke-width="1.49" stroke-linecap="butt" stroke-linejoin="round" fill="none" stroke="#1b4965" stroke-opacity=".502" d="M580.17 63.32H591.43"/>
<path transform="matrix(1,0,0,-1,0,577)" stroke-width="1.49" stroke-linecap="butt" stroke-linejoin="round" fill="none" stroke="#1b4965" stroke-opacity=".502" d="M642.12 293.29V71.2"/>
</g>
<path transform="matrix(1,0,0,-1,0,577)" stroke-width="1.36" stroke-linecap="square" stroke-linejoin="round" fill="none" stroke="#000000" d="M50.79 41.04V531.22"/>
<text xml:space="preserve" transform="matrix(1 0 -0 1 0 577)" font-size="11" font-family="Nimbus Sans"><tspan y="-82.25" x="23.11 29.226002 32.284 38.4">0.35</tspan></text>
<text xml:space="preserve" transform="matrix(1 0 -0 1 0 577)" font-size="11" font-family="Nimbus Sans"><tspan y="-182.65" x="23.11 29.226002 32.284 38.4">0.40</tspan></text>
<text xml:space="preserve" transform="matrix(1 0 -0 1 0 577)" font-size="11" font-family="Nimbus Sans"><tspan y="-283.04" x="23.11 29.226002 32.284 38.4">0.45</tspan></text>
<text xml:space="preserve" transform="matrix(1 0 -0 1 0 577)" font-size="11" font-family="Nimbus Sans"><tspan y="-383.43" x="23.11 29.226002 32.284 38.4">0.50</tspan></text>
<text xml:space="preserve" transform="matrix(1 0 -0 1 0 577)" font-size="11" font-family="Nimbus Sans"><tspan y="-483.83" x="23.11 29.226002 32.284 38.4">0.55</tspan></text>
<path transform="matrix(1,0,0,-1,0,577)" stroke-width="1.36" stroke-linecap="butt" stroke-linejoin="round" fill="none" stroke="#000000" d="M47.3 86.2H50.79"/>
<path transform="matrix(1,0,0,-1,0,577)" stroke-width="1.36" stroke-linecap="butt" stroke-linejoin="round" fill="none" stroke="#000000" d="M47.3 186.59H50.79"/>
<path transform="matrix(1,0,0,-1,0,577)" stroke-width="1.36" stroke-linecap="butt" stroke-linejoin="round" fill="none" stroke="#000000" d="M47.3 286.99H50.79"/>
<path transform="matrix(1,0,0,-1,0,577)" stroke-width="1.36" stroke-linecap="butt" stroke-linejoin="round" fill="none" stroke="#000000" d="M47.3 387.38H50.79"/>
<path transform="matrix(1,0,0,-1,0,577)" stroke-width="1.36" stroke-linecap="butt" stroke-linejoin="round" fill="none" stroke="#000000" d="M47.3 487.78H50.79"/>
<path transform="matrix(1,0,0,-1,0,577)" stroke-width="1.36" stroke-linecap="square" stroke-linejoin="round" fill="none" stroke="#000000" d="M50.79 41.04H670.28"/>
<path transform="matrix(1,0,0,-1,0,577)" stroke-width="1.36" stroke-linecap="butt" stroke-linejoin="round" fill="none" stroke="#000000" d="M78.95 37.55V41.04"/>
<path transform="matrix(1,0,0,-1,0,577)" stroke-width="1.36" stroke-linecap="butt" stroke-linejoin="round" fill="none" stroke="#000000" d="M135.26 37.55V41.04"/>
<path transform="matrix(1,0,0,-1,0,577)" stroke-width="1.36" stroke-linecap="butt" stroke-linejoin="round" fill="none" stroke="#000000" d="M191.58 37.55V41.04"/>
<path transform="matrix(1,0,0,-1,0,577)" stroke-width="1.36" stroke-linecap="butt" stroke-linejoin="round" fill="none" stroke="#000000" d="M247.9 37.55V41.04"/>
<path transform="matrix(1,0,0,-1,0,577)" stroke-width="1.36" stroke-linecap="butt" stroke-linejoin="round" fill="none" stroke="#000000" d="M304.22 37.55V41.04"/>
<path transform="matrix(1,0,0,-1,0,577)" stroke-width="1.36" stroke-linecap="butt" stroke-linejoin="round" fill="none" stroke="#000000" d="M360.53 37.55V41.04"/>
<path transform="matrix(1,0,0,-1,0,577)" stroke-width="1.36" stroke-linecap="butt" stroke-linejoin="round" fill="none" stroke="#000000" d="M416.85 37.55V41.04"/>
<path transform="matrix(1,0,0,-1,0,577)" stroke-width="1.36" stroke-linecap="butt" stroke-linejoin="round" fill="none" stroke="#000000" d="M473.17 37.55V41.04"/>
<path transform="matrix(1,0,0,-1,0,577)" stroke-width="1.36" stroke-linecap="butt" stroke-linejoin="round" fill="none" stroke="#000000" d="M529.48 37.55V41.04"/>
<path transform="matrix(1,0,0,-1,0,577)" stroke-width="1.36" stroke-linecap="butt" stroke-linejoin="round" fill="none" stroke="#000000" d="M585.8 37.55V41.04"/>
<path transform="matrix(1,0,0,-1,0,577)" stroke-width="1.36" stroke-linecap="butt" stroke-linejoin="round" fill="none" stroke="#000000" d="M642.12 37.55V41.04"/>
<text xml:space="preserve" transform="matrix(1 0 -0 1 0 577)" font-size="11" font-family="Nimbus Sans"><tspan y="-26.86" x="75.89">8</tspan></text>
<text xml:space="preserve" transform="matrix(1 0 -0 1 0 577)" font-size="11" font-family="Nimbus Sans"><tspan y="-26.86" x="132.21">9</tspan></text>
<text xml:space="preserve" transform="matrix(1 0 -0 1 0 577)" font-size="11" font-family="Nimbus Sans"><tspan y="-26.86" x="185.47 191.586">10</tspan></text>
<text xml:space="preserve" transform="matrix(1 0 -0 1 0 577)" font-size="11" font-family="Nimbus Sans"><tspan y="-26.86" x="241.78 247.896">11</tspan></text>
<text xml:space="preserve" transform="matrix(1 0 -0 1 0 577)" font-size="11" font-family="Nimbus Sans"><tspan y="-26.86" x="298.1 304.216">12</tspan></text>
<text xml:space="preserve" transform="matrix(1 0 -0 1 0 577)" font-size="11" font-family="Nimbus Sans"><tspan y="-26.86" x="354.42 360.536">13</tspan></text>
<text xml:space="preserve" transform="matrix(1 0 -0 1 0 577)" font-size="11" font-family="Nimbus Sans"><tspan y="-26.86" x="410.73 416.846">14</tspan></text>
<text xml:space="preserve" transform="matrix(1 0 -0 1 0 577)" font-size="11" font-family="Nimbus Sans"><tspan y="-26.86" x="467.05 473.166">15</tspan></text>
<text xml:space="preserve" transform="matrix(1 0 -0 1 0 577)" font-size="11" font-family="Nimbus Sans"><tspan y="-26.86" x="523.37 529.486">16</tspan></text>
<text xml:space="preserve" transform="matrix(1 0 -0 1 0 577)" font-size="11" font-family="Nimbus Sans"><tspan y="-26.86" x="579.68 585.796">17</tspan></text>
<text xml:space="preserve" transform="matrix(1 0 -0 1 0 577)" font-size="11" font-family="Nimbus Sans"><tspan y="-26.86" x="636 642.116">18</tspan></text>
<text xml:space="preserve" transform="matrix(1 0 -0 1 0 577)" font-size="14" font-family="Nimbus Sans" font-weight="bold"><tspan y="-9.97" x="322.52 332.628 341.322 349.106 352.998 357.65998 365.30397 373.08796 380.87196 386.10798 393.89198">Age (years)</tspan></text>
<text xml:space="preserve" transform="matrix(0 -1 1 0 0 577)" font-size="14" font-family="Nimbus Sans" font-weight="bold"><tspan y="17.03" x="179.16 188.498 197.052 205.606 213.39 221.174 225.836 229.728 238.282 246.836 254.62 258.512 262.404 266.296 270.188 280.296 288.08 295.86399 301.31 309.094 316.878 321.53999 325.43199 333.98597 342.53996 350.32395 354.21595 358.10795 368.21595 375.99995 380.66194 384.55393">Educational / Recreational Ratio</tspan></text>
<text xml:space="preserve" transform="matrix(1 0 -0 1 0 577)" font-size="12" font-family="Nimbus Sans"><tspan y="-540.45" x="50.79 60.786005 67.45801 74.130008 80.802 84.138 89.838 96.509998 99.173999 105.84599 112.51799 118.51799 121.85399 130.51799 133.18199 136.51799 143.18999 146.52599 153.53398 160.20598 163.54198 169.54198 172.87798 179.54998 186.22197 192.89397 199.56597 203.56197 210.23397 213.56996 220.24196 226.55396 232.55396 235.21796 241.88996 245.22595 247.88996 254.56195 261.23396 264.56996 271.24195 277.91395 284.58595 287.92195 293.92195 303.91795 310.58995 317.26194 320.59794 327.26994 333.94194 340.61393 343.94993 347.28593 351.28193 357.95393 364.62593 371.2979 374.6339 377.2979 379.9619 386.6339">Mean values with &#x00b1;1 standard deviation and smoothed trend line</tspan></text>
<text xml:space="preserve" transform="matrix(1 0 -0 1 0 577)" font-size="16" font-family="Nimbus Sans" font-weight="bold"><tspan y="-559.04" x="50.79 60.566 65.014 74.79 84.566 90.79 99.686008 104.134 113.03001 117.478008 121.926 132.598 142.37401 152.15001 161.046 169.942 175.27 179.718 189.494 199.27 208.166 212.614 217.062 222.39 232.166 236.614 248.166 257.062 265.958 272.182 281.078 289.974 295.302 299.75 309.526 319.302 328.198 332.646 337.094 348.646 357.542 362.87 367.318 377.094 381.542 390.998 399.89399 404.34199 415.89399 425.83">Figure 3. Educational to Recreational Ratio by Age</tspan></text>
</svg>
