<svg xmlns="http://www.w3.org/2000/svg" xmlns:xlink="http://www.w3.org/1999/xlink" xmlns:inkscape="http://www.inkscape.org/namespaces/inkscape" version="1.1" width="572" height="545" viewBox="0 0 572 545">
<defs>
<clipPath id="clip_1">
<path transform="matrix(1,0,0,-1,0,545)" d="M0 0H573V545.25H0Z"/>
</clipPath>
<clipPath id="clip_2">
<path transform="matrix(1,0,0,-1,0,545)" d="M120.54 41.04H566.02999V516.82H120.54Z"/>
</clipPath>
</defs>
<g clip-path="url(#clip_1)">
<path transform="matrix(1,0,0,-1,0,545)" d="M0 0H573V545.25H0Z" fill="#ffffff"/>
<path transform="matrix(1,0,0,-1,0,545)" stroke-width="1.36" stroke-linecap="round" stroke-linejoin="round" fill="none" stroke="#ffffff" d="M0 0H573V545.25H0Z"/>
</g>
<g clip-path="url(#clip_2)">
<path transform="matrix(1,0,0,-1,0,545)" d="M120.54 41.04H566.02999V516.82H120.54Z" fill="#ffffff"/>
<path transform="matrix(1,0,0,-1,0,545)" d="M222.42 425.93 223.21 426.23 224.01 426.61 224.8 427.08 225.59 427.65 226.38 428.34 227.18 429.17 227.97 430.16 228.76 431.34 229.55 432.69 230.35 434.23 231.14 435.97 231.93 437.88 232.72 439.99 233.52 442.26 234.31 444.71 235.1 447.27 235.89 449.93 236.69 452.63 237.48 455.34 238.27 458.02 239.06 460.64 239.86 463.14 240.65 465.47 241.44 467.62 242.23 469.57 243.03 471.31 243.82 472.85 244.61 474.19 245.4 475.35 246.2 476.34 246.99 477.21 247.78 478 248.57 478.76 249.37 479.52 250.16 480.31 250.95 481.16 251.74 482.09 252.54 483.13 253.33 484.26 254.12 485.49 254.91 486.79 255.71 488.14 256.5 489.51 257.29 490.89 258.08 492.24 258.88 493.51 259.67 494.69 260.46 495.75 261.25 496.69 262.05 497.49 262.84 498.16 263.63 498.7 264.42 499.1 265.22 499.39 266.01 499.6 266.8 499.75 267.6 499.87 268.39 499.99 269.18 500.12 269.97 500.29 270.77 500.54 271.56 500.89 272.35 501.34 273.14 501.91 273.94 502.61 274.73 503.43 275.52 504.38 276.31 505.45 277.11 506.64 277.9 507.9 278.69 509.22 279.48 510.56 280.28 511.88 281.07 513.14 281.86 514.31 282.65 515.31 283.45 516.08 284.24 516.6 285.03 516.81 285.82 516.69 286.62 516.21 287.41 515.33 288.2 514.04 288.99 512.29 289.79 510.11 290.58 507.55 291.37 504.64 292.16 501.41 292.96 497.92 293.75 494.21 294.54 490.35 295.33 486.4 296.13 482.45 296.92 478.57 297.71 474.82 298.5 471.26 299.3 467.94 300.09 464.91 300.88 462.22 301.67 459.93 302.47 458.03 303.26 456.51 304.05 455.37 304.84 454.6 305.64 454.18 306.43 454.08 307.22 454.3 308.01 454.76 308.81 455.42 309.6 456.21 310.39 457.08 311.18 457.99 311.98 458.88 312.77 459.72 313.56 460.42 314.35 460.97 315.15 461.34 315.94 461.5 316.73 461.44 317.53 461.15 318.32 460.64 319.11 459.9 319.9 458.94 320.7 457.81 321.49 456.54 322.28 455.15 323.07 453.68 323.87 452.16 324.66 450.62 325.45 449.09 326.24 447.59 327.04 446.14 327.83 444.76 328.62 443.45 329.41 442.21 330.21 441.05 331 439.96 331.79 438.94 332.58 437.98 333.38 437.07 334.17 436.19 334.96 435.35 335.75 434.54 336.55 433.76 337.34 432.99 338.13 432.26 338.92 431.55 339.72 430.87 340.51 430.22 341.3 429.6 342.09 429.03 342.89 428.49 343.68 428.01 344.47 427.58 345.26 427.2 346.06 426.86 346.85 426.58 347.64 426.35 348.43 426.17 349.23 426.04 350.02 425.96 350.81 425.93 351.6 425.95 352.4 426.01 353.19 426.12 353.98 426.28 354.77 426.49 355.57 426.74 356.36 427.04 357.15 427.39 357.94 427.78 358.74 428.21 359.53 428.66 360.32 429.14 361.11 429.64 361.91 430.14 362.7 430.64 363.49 431.12 364.28 431.56 365.08 431.97 365.87 432.32 366.66 432.6 367.46 432.82 368.25 432.95 369.04 432.98 369.83 432.94 370.63 432.81 371.42 432.6 372.21 432.32 373 431.97 373.8 431.57 374.59 431.11 375.38 430.63 376.17 430.13 376.97 429.63 377.76 429.13 378.55 428.64 379.34 428.18 380.14 427.74 380.93 427.34 381.72 426.98 382.51 426.65 383.31 426.37 384.1 426.12V425H383.31 382.51 381.72 380.93 380.14 379.34 378.55 377.76 376.97 376.17 375.38 374.59 373.8 373 372.21 371.42 370.63 369.83 369.04 368.25 367.46 366.66 365.87 365.08 364.28 363.49 362.7 361.91 361.11 360.32 359.53 358.74 357.94 357.15 356.36 355.57 354.77 353.98 353.19 352.4 351.6 350.81 350.02 349.23 348.43 347.64 346.85 346.06 345.26 344.47 343.68 342.89 342.09 341.3 340.51 339.72 338.92 338.13 337.34 336.55 335.75 334.96 334.17 333.38 332.58 331.79 331 330.21 329.41 328.62 327.83 327.04 326.24 325.45 324.66 323.87 323.07 322.28 321.49 320.7 319.9 319.11 318.32 317.53 316.73 315.94 315.15 314.35 313.56 312.77 311.98 311.18 310.39 309.6 308.81 308.01 307.22 306.43 305.64 304.84 304.05 303.26 302.47 301.67 300.88 300.09 299.3 298.5 297.71 296.92 296.13 295.33 294.54 293.75 292.96 292.16 291.37 290.58 289.79 288.99 288.2 287.41 286.62 285.82 285.03 284.24 283.45 282.65 281.86 281.07 280.28 279.48 278.69 277.9 277.11 276.31 275.52 274.73 273.94 273.14 272.35 271.56 270.77 269.97 269.18 268.39 267.6 266.8 266.01 265.22 264.42 263.63 262.84 262.05 261.25 260.46 259.67 258.88 258.08 257.29 256.5 255.71 254.91 254.12 253.33 252.54 251.74 250.95 250.16 249.37 248.57 247.78 246.99 246.2 245.4 244.61 243.82 243.03 242.23 241.44 240.65 239.86 239.06 238.27 237.48 236.69 235.89 235.1 234.31 233.52 232.72 231.93 231.14 230.35 229.55 228.76 227.97 227.18 226.38 225.59 224.8 224.01 223.21 222.42Z" fill="#e76bf3" fill-opacity=".851"/>
<path transform="matrix(1,0,0,-1,0,545)" stroke-width=".85" stroke-linecap="round" stroke-linejoin="round" fill="none" stroke="#000000" d="M222.42 425.93 223.21 426.23 224.01 426.61 224.8 427.08 225.59 427.65 226.38 428.34 227.18 429.17 227.97 430.16 228.76 431.34 229.55 432.69 230.35 434.23 231.14 435.97 231.93 437.88 232.72 439.99 233.52 442.26 234.31 444.71 235.1 447.27 235.89 449.93 236.69 452.63 237.48 455.34 238.27 458.02 239.06 460.64 239.86 463.14 240.65 465.47 241.44 467.62 242.23 469.57 243.03 471.31 243.82 472.85 244.61 474.19 245.4 475.35 246.2 476.34 246.99 477.21 247.78 478 248.57 478.76 249.37 479.52 250.16 480.31 250.95 481.16 251.74 482.09 252.54 483.13 253.33 484.26 254.12 485.49 254.91 486.79 255.71 488.14 256.5 489.51 257.29 490.89 258.08 492.24 258.88 493.51 259.67 494.69 260.46 495.75 261.25 496.69 262.05 497.49 262.84 498.16 263.63 498.7 264.42 499.1 265.22 499.39 266.01 499.6 266.8 499.75 267.6 499.87 268.39 499.99 269.18 500.12 269.97 500.29 270.77 500.54 271.56 500.89 272.35 501.34 273.14 501.91 273.94 502.61 274.73 503.43 275.52 504.38 276.31 505.45 277.11 506.64 277.9 507.9 278.69 509.22 279.48 510.56 280.28 511.88 281.07 513.14 281.86 514.31 282.65 515.31 283.45 516.08 284.24 516.6 285.03 516.81 285.82 516.69 286.62 516.21 287.41 515.33 288.2 514.04 288.99 512.29 289.79 510.11 290.58 507.55 291.37 504.64 292.16 501.41 292.96 497.92 293.75 494.21 294.54 490.35 295.33 486.4 296.13 482.45 296.92 478.57 297.71 474.82 298.5 471.26 299.3 467.94 300.09 464.91 300.88 462.22 301.67 459.93 302.47 458.03 303.26 456.51 304.05 455.37 304.84 454.6 305.64 454.18 306.43 454.08 307.22 454.3 308.01 454.76 308.81 455.42 309.6 456.21 310.39 457.08 311.18 457.99 311.98 458.88 312.77 459.72 313.56 460.42 314.35 460.97 315.15 461.34 315.94 461.5 316.73 461.44 317.53 461.15 318.32 460.64 319.11 459.9 319.9 458.94 320.7 457.81 321.49 456.54 322.28 455.15 323.07 453.68 323.87 452.16 324.66 450.62 325.45 449.09 326.24 447.59 327.04 446.14 327.83 444.76 328.62 443.45 329.41 442.21 330.21 441.05 331 439.96 331.79 438.94 332.58 437.98 333.38 437.07 334.17 436.19 334.96 435.35 335.75 434.54 336.55 433.76 337.34 432.99 338.13 432.26 338.92 431.55 339.72 430.87 340.51 430.22 341.3 429.6 342.09 429.03 342.89 428.49 343.68 428.01 344.47 427.58 345.26 427.2 346.06 426.86 346.85 426.58 347.64 426.35 348.43 426.17 349.23 426.04 350.02 425.96 350.81 425.93 351.6 425.95 352.4 426.01 353.19 426.12 353.98 426.28 354.77 426.49 355.57 426.74 356.36 427.04 357.15 427.39 357.94 427.78 358.74 428.21 359.53 428.66 360.32 429.14 361.11 429.64 361.91 430.14 362.7 430.64 363.49 431.12 364.28 431.56 365.08 431.97 365.87 432.32 366.66 432.6 367.46 432.82 368.25 432.95 369.04 432.98 369.83 432.94 370.63 432.81 371.42 432.6 372.21 432.32 373 431.97 373.8 431.57 374.59 431.11 375.38 430.63 376.17 430.13 376.97 429.63 377.76 429.13 378.55 428.64 379.34 428.18 380.14 427.74 380.93 427.34 381.72 426.98 382.51 426.65 383.31 426.37 384.1 426.12"/>
<path transform="matrix(1,0,0,-1,0,545)" d="M226.38 342.48 227.18 342.74 227.97 343.07 228.76 343.46 229.55 343.93 230.35 344.48 231.14 345.13 231.93 345.87 232.72 346.72 233.52 347.67 234.31 348.76 235.1 349.97 235.89 351.29 236.69 352.72 237.48 354.26 238.27 355.9 239.06 357.63 239.86 359.44 240.65 361.32 241.44 363.25 242.23 365.22 243.03 367.2 243.82 369.19 244.61 371.17 245.4 373.13 246.2 375.06 246.99 376.94 247.78 378.78 248.57 380.57 249.37 382.31 250.16 384 250.95 385.64 251.74 387.22 252.54 388.76 253.33 390.24 254.12 391.68 254.91 393.09 255.71 394.45 256.5 395.77 257.29 397.06 258.08 398.31 258.88 399.51 259.67 400.66 260.46 401.77 261.25 402.84 262.05 403.85 262.84 404.8 263.63 405.7 264.42 406.54 265.22 407.31 266.01 408.02 266.8 408.66 267.6 409.25 268.39 409.77 269.18 410.24 269.97 410.66 270.77 411.03 271.56 411.35 272.35 411.63 273.14 411.89 273.94 412.12 274.73 412.33 275.52 412.52 276.31 412.71 277.11 412.88 277.9 413.05 278.69 413.22 279.48 413.39 280.28 413.54 281.07 413.69 281.86 413.83 282.65 413.95 283.45 414.05 284.24 414.11 285.03 414.14 285.82 414.13 286.62 414.06 287.41 413.94 288.2 413.76 288.99 413.5 289.79 413.17 290.58 412.77 291.37 412.29 292.16 411.74 292.96 411.13 293.75 410.44 294.54 409.7 295.33 408.9 296.13 408.05 296.92 407.17 297.71 406.27 298.5 405.35 299.3 404.43 300.09 403.51 300.88 402.6 301.67 401.72 302.47 400.86 303.26 400.02 304.05 399.22 304.84 398.44 305.64 397.68 306.43 396.94 307.22 396.21 308.01 395.48 308.81 394.74 309.6 393.99 310.39 393.2 311.18 392.38 311.98 391.52 312.77 390.61 313.56 389.65 314.35 388.65 315.15 387.6 315.94 386.51 316.73 385.39 317.53 384.26 318.32 383.11 319.11 381.96 319.9 380.82 320.7 379.7 321.49 378.61 322.28 377.55 323.07 376.53 323.87 375.54 324.66 374.59 325.45 373.68 326.24 372.8 327.04 371.94 327.83 371.1 328.62 370.28 329.41 369.46 330.21 368.64 331 367.82 331.79 366.99 332.58 366.16 333.38 365.32 334.17 364.48 334.96 363.64 335.75 362.8 336.55 361.96 337.34 361.14 338.13 360.33 338.92 359.55 339.72 358.8 340.51 358.08 341.3 357.39 342.09 356.74 342.89 356.13 343.68 355.57 344.47 355.05 345.26 354.57 346.06 354.13 346.85 353.73 347.64 353.36 348.43 353.04 349.23 352.74 350.02 352.48 350.81 352.24 351.6 352.02 352.4 351.83 353.19 351.64 353.98 351.47 354.77 351.3 355.57 351.14 356.36 350.97 357.15 350.8 357.94 350.62 358.74 350.43 359.53 350.22 360.32 350 361.11 349.76 361.91 349.5 362.7 349.22 363.49 348.93 364.28 348.62 365.08 348.31 365.87 347.98 366.66 347.65 367.46 347.32 368.25 346.99 369.04 346.67 369.83 346.35 370.63 346.05 371.42 345.76 372.21 345.49 373 345.24 373.8 345.01 374.59 344.8 375.38 344.61 376.17 344.45 376.97 344.3 377.76 344.18 378.55 344.07 379.34 343.97 380.14 343.89 380.93 343.83 381.72 343.76 382.51 343.7 383.31 343.65 384.1 343.59 384.89 343.53 385.68 343.47 386.48 343.39 387.27 343.31 388.06 343.23 388.85 343.14 389.65 343.04 390.44 342.93 391.23 342.82 392.02 342.71 392.82 342.6 393.61 342.49V341.53H392.82 392.02 391.23 390.44 389.65 388.85 388.06 387.27 386.48 385.68 384.89 384.1 383.31 382.51 381.72 380.93 380.14 379.34 378.55 377.76 376.97 376.17 375.38 374.59 373.8 373 372.21 371.42 370.63 369.83 369.04 368.25 367.46 366.66 365.87 365.08 364.28 363.49 362.7 361.91 361.11 360.32 359.53 358.74 357.94 357.15 356.36 355.57 354.77 353.98 353.19 352.4 351.6 350.81 350.02 349.23 348.43 347.64 346.85 346.06 345.26 344.47 343.68 342.89 342.09 341.3 340.51 339.72 338.92 338.13 337.34 336.55 335.75 334.96 334.17 333.38 332.58 331.79 331 330.21 329.41 328.62 327.83 327.04 326.24 325.45 324.66 323.87 323.07 322.28 321.49 320.7 319.9 319.11 318.32 317.53 316.73 315.94 315.15 314.35 313.56 312.77 311.98 311.18 310.39 309.6 308.81 308.01 307.22 306.43 305.64 304.84 304.05 303.26 302.47 301.67 300.88 300.09 299.3 298.5 297.71 296.92 296.13 295.33 294.54 293.75 292.96 292.16 291.37 290.58 289.79 288.99 288.2 287.41 286.62 285.82 285.03 284.24 283.45 282.65 281.86 281.07 280.28 279.48 278.69 277.9 277.11 276.31 275.52 274.73 273.94 273.14 272.35 271.56 270.77 269.97 269.18 268.39 267.6 266.8 266.01 265.22 264.42 263.63 262.84 262.05 261.25 260.46 259.67 258.88 258.08 257.29 256.5 255.71 254.91 254.12 253.33 252.54 251.74 250.95 250.16 249.37 248.57 247.78 246.99 246.2 245.4 244.61 243.82 243.03 242.23 241.44 240.65 239.86 239.06 238.27 237.48 236.69 235.89 235.1 234.31 233.52 232.72 231.93 231.14 230.35 229.55 228.76 227.97 227.18 226.38Z" fill="#00b0f6" fill-opacity=".851"/>
<path transform="matrix(1,0,0,-1,0,545)" stroke-width=".85" stroke-linecap="round" stroke-linejoin="round" fill="none" stroke="#000000" d="M226.38 342.48 227.18 342.74 227.97 343.07 228.76 343.46 229.55 343.93 230.35 344.48 231.14 345.13 231.93 345.87 232.72 346.72 233.52 347.67 234.31 348.76 235.1 349.97 235.89 351.29 236.69 352.72 237.48 354.26 238.27 355.9 239.06 357.63 239.86 359.44 240.65 361.32 241.44 363.25 242.23 365.22 243.03 367.2 243.82 369.19 244.61 371.17 245.4 373.13 246.2 375.06 246.99 376.94 247.78 378.78 248.57 380.57 249.37 382.31 250.16 384 250.95 385.64 251.74 387.22 252.54 388.76 253.33 390.24 254.12 391.68 254.91 393.09 255.71 394.45 256.5 395.77 257.29 397.06 258.08 398.31 258.88 399.51 259.67 400.66 260.46 401.77 261.25 402.84 262.05 403.85 262.84 404.8 263.63 405.7 264.42 406.54 265.22 407.31 266.01 408.02 266.8 408.66 267.6 409.25 268.39 409.77 269.18 410.24 269.97 410.66 270.77 411.03 271.56 411.35 272.35 411.63 273.14 411.89 273.94 412.12 274.73 412.33 275.52 412.52 276.31 412.71 277.11 412.88 277.9 413.05 278.69 413.22 279.48 413.39 280.28 413.54 281.07 413.69 281.86 413.83 282.65 413.95 283.45 414.05 284.24 414.11 285.03 414.14 285.82 414.13 286.62 414.06 287.41 413.94 288.2 413.76 288.99 413.5 289.79 413.17 290.58 412.77 291.37 412.29 292.16 411.74 292.96 411.13 293.75 410.44 294.54 409.7 295.33 408.9 296.13 408.05 296.92 407.17 297.71 406.27 298.5 405.35 299.3 404.43 300.09 403.51 300.88 402.6 301.67 401.72 302.47 400.86 303.26 400.02 304.05 399.22 304.84 398.44 305.64 397.68 306.43 396.94 307.22 396.21 308.01 395.48 308.81 394.74 309.6 393.99 310.39 393.2 311.18 392.38 311.98 391.52 312.77 390.61 313.56 389.65 314.35 388.65 315.15 387.6 315.94 386.51 316.73 385.39 317.53 384.26 318.32 383.11 319.11 381.96 319.9 380.82 320.7 379.7 321.49 378.61 322.28 377.55 323.07 376.53 323.87 375.54 324.66 374.59 325.45 373.68 326.24 372.8 327.04 371.94 327.83 371.1 328.62 370.28 329.41 369.46 330.21 368.64 331 367.82 331.79 366.99 332.58 366.16 333.38 365.32 334.17 364.48 334.96 363.64 335.75 362.8 336.55 361.96 337.34 361.14 338.13 360.33 338.92 359.55 339.72 358.8 340.51 358.08 341.3 357.39 342.09 356.74 342.89 356.13 343.68 355.57 344.47 355.05 345.26 354.57 346.06 354.13 346.85 353.73 347.64 353.36 348.43 353.04 349.23 352.74 350.02 352.48 350.81 352.24 351.6 352.02 352.4 351.83 353.19 351.64 353.98 351.47 354.77 351.3 355.57 351.14 356.36 350.97 357.15 350.8 357.94 350.62 358.74 350.43 359.53 350.22 360.32 350 361.11 349.76 361.91 349.5 362.7 349.22 363.49 348.93 364.28 348.62 365.08 348.31 365.87 347.98 366.66 347.65 367.46 347.32 368.25 346.99 369.04 346.67 369.83 346.35 370.63 346.05 371.42 345.76 372.21 345.49 373 345.24 373.8 345.01 374.59 344.8 375.38 344.61 376.17 344.45 376.97 344.3 377.76 344.18 378.55 344.07 379.34 343.97 380.14 343.89 380.93 343.83 381.72 343.76 382.51 343.7 383.31 343.65 384.1 343.59 384.89 343.53 385.68 343.47 386.48 343.39 387.27 343.31 388.06 343.23 388.85 343.14 389.65 343.04 390.44 342.93 391.23 342.82 392.02 342.71 392.82 342.6 393.61 342.49"/>
<path transform="matrix(1,0,0,-1,0,545)" d="M226.38 258.99 227.18 259.25 227.97 259.57 228.76 259.97 229.55 260.45 230.35 261.02 231.14 261.68 231.93 262.45 232.72 263.34 233.52 264.35 234.31 265.51 235.1 266.8 235.89 268.23 236.69 269.78 237.48 271.46 238.27 273.26 239.06 275.16 239.86 277.16 240.65 279.25 241.44 281.39 242.23 283.57 243.03 285.76 243.82 287.95 244.61 290.13 245.4 292.26 246.2 294.33 246.99 296.33 247.78 298.24 248.57 300.06 249.37 301.78 250.16 303.41 250.95 304.93 251.74 306.35 252.54 307.67 253.33 308.9 254.12 310.04 254.91 311.11 255.71 312.11 256.5 313.05 257.29 313.94 258.08 314.78 258.88 315.58 259.67 316.35 260.46 317.08 261.25 317.79 262.05 318.48 262.84 319.16 263.63 319.81 264.42 320.44 265.22 321.06 266.01 321.65 266.8 322.23 267.6 322.8 268.39 323.34 269.18 323.87 269.97 324.38 270.77 324.87 271.56 325.34 272.35 325.8 273.14 326.25 273.94 326.68 274.73 327.1 275.52 327.51 276.31 327.92 277.11 328.31 277.9 328.69 278.69 329.07 279.48 329.43 280.28 329.78 281.07 330.11 281.86 330.41 282.65 330.69 283.45 330.93 284.24 331.12 285.03 331.27 285.82 331.36 286.62 331.4 287.41 331.36 288.2 331.26 288.99 331.07 289.79 330.79 290.58 330.44 291.37 330 292.16 329.47 292.96 328.87 293.75 328.19 294.54 327.44 295.33 326.61 296.13 325.72 296.92 324.78 297.71 323.79 298.5 322.77 299.3 321.71 300.09 320.63 300.88 319.53 301.67 318.42 302.47 317.3 303.26 316.19 304.05 315.09 304.84 314 305.64 312.92 306.43 311.85 307.22 310.8 308.01 309.77 308.81 308.75 309.6 307.74 310.39 306.75 311.18 305.78 311.98 304.81 312.77 303.85 313.56 302.91 314.35 301.97 315.15 301.04 315.94 300.12 316.73 299.22 317.53 298.32 318.32 297.43 319.11 296.56 319.9 295.7 320.7 294.86 321.49 294.03 322.28 293.22 323.07 292.42 323.87 291.63 324.66 290.85 325.45 290.09 326.24 289.33 327.04 288.58 327.83 287.83 328.62 287.09 329.41 286.35 330.21 285.61 331 284.87 331.79 284.13 332.58 283.39 333.38 282.66 334.17 281.92 334.96 281.18 335.75 280.45 336.55 279.72 337.34 278.99 338.13 278.27 338.92 277.54 339.72 276.82 340.51 276.11 341.3 275.4 342.09 274.69 342.89 273.99 343.68 273.3 344.47 272.62 345.26 271.95 346.06 271.29 346.85 270.66 347.64 270.04 348.43 269.44 349.23 268.87 350.02 268.34 350.81 267.83 351.6 267.35 352.4 266.9 353.19 266.49 353.98 266.11 354.77 265.76 355.57 265.44 356.36 265.15 357.15 264.89 357.94 264.65 358.74 264.43 359.53 264.23 360.32 264.04 361.11 263.87 361.91 263.7 362.7 263.55 363.49 263.4 364.28 263.25 365.08 263.11 365.87 262.97 366.66 262.83 367.46 262.69 368.25 262.55 369.04 262.42 369.83 262.29 370.63 262.16 371.42 262.04 372.21 261.92 373 261.8 373.8 261.69 374.59 261.59 375.38 261.5 376.17 261.41 376.97 261.33 377.76 261.25 378.55 261.18 379.34 261.11 380.14 261.04 380.93 260.98 381.72 260.93 382.51 260.87 383.31 260.82 384.1 260.76 384.89 260.71 385.68 260.66 386.48 260.6 387.27 260.55 388.06 260.5 388.85 260.44 389.65 260.39 390.44 260.33 391.23 260.28 392.02 260.22 392.82 260.17 393.61 260.11 394.4 260.06 395.19 260 395.99 259.95 396.78 259.9 397.57 259.85 398.36 259.8 399.16 259.76 399.95 259.71 400.74 259.66 401.53 259.62 402.33 259.58 403.12 259.53 403.91 259.49 404.7 259.44 405.5 259.4 406.29 259.36 407.08 259.31 407.87 259.27 408.67 259.23 409.46 259.18 410.25 259.14 411.04 259.09 411.84 259.05 412.63 259.01V258.06H411.84 411.04 410.25 409.46 408.67 407.87 407.08 406.29 405.5 404.7 403.91 403.12 402.33 401.53 400.74 399.95 399.16 398.36 397.57 396.78 395.99 395.19 394.4 393.61 392.82 392.02 391.23 390.44 389.65 388.85 388.06 387.27 386.48 385.68 384.89 384.1 383.31 382.51 381.72 380.93 380.14 379.34 378.55 377.76 376.97 376.17 375.38 374.59 373.8 373 372.21 371.42 370.63 369.83 369.04 368.25 367.46 366.66 365.87 365.08 364.28 363.49 362.7 361.91 361.11 360.32 359.53 358.74 357.94 357.15 356.36 355.57 354.77 353.98 353.19 352.4 351.6 350.81 350.02 349.23 348.43 347.64 346.85 346.06 345.26 344.47 343.68 342.89 342.09 341.3 340.51 339.72 338.92 338.13 337.34 336.55 335.75 334.96 334.17 333.38 332.58 331.79 331 330.21 329.41 328.62 327.83 327.04 326.24 325.45 324.66 323.87 323.07 322.28 321.49 320.7 319.9 319.11 318.32 317.53 316.73 315.94 315.15 314.35 313.56 312.77 311.98 311.18 310.39 309.6 308.81 308.01 307.22 306.43 305.64 304.84 304.05 303.26 302.47 301.67 300.88 300.09 299.3 298.5 297.71 296.92 296.13 295.33 294.54 293.75 292.96 292.16 291.37 290.58 289.79 288.99 288.2 287.41 286.62 285.82 285.03 284.24 283.45 282.65 281.86 281.07 280.28 279.48 278.69 277.9 277.11 276.31 275.52 274.73 273.94 273.14 272.35 271.56 270.77 269.97 269.18 268.39 267.6 266.8 266.01 265.22 264.42 263.63 262.84 262.05 261.25 260.46 259.67 258.88 258.08 257.29 256.5 255.71 254.91 254.12 253.33 252.54 251.74 250.95 250.16 249.37 248.57 247.78 246.99 246.2 245.4 244.61 243.82 243.03 242.23 241.44 240.65 239.86 239.06 238.27 237.48 236.69 235.89 235.1 234.31 233.52 232.72 231.93 231.14 230.35 229.55 228.76 227.97 227.18 226.38Z" fill="#00bf7d" fill-opacity=".851"/>
<path transform="matrix(1,0,0,-1,0,545)" stroke-width=".85" stroke-linecap="round" stroke-linejoin="round" fill="none" stroke="#000000" d="M226.38 258.99 227.18 259.25 227.97 259.57 228.76 259.97 229.55 260.45 230.35 261.02 231.14 261.68 231.93 262.45 232.72 263.34 233.52 264.35 234.31 265.51 235.1 266.8 235.89 268.23 236.69 269.78 237.48 271.46 238.27 273.26 239.06 275.16 239.86 277.16 240.65 279.25 241.44 281.39 242.23 283.57 243.03 285.76 243.82 287.95 244.61 290.13 245.4 292.26 246.2 294.33 246.99 296.33 247.78 298.24 248.57 300.06 249.37 301.78 250.16 303.41 250.95 304.93 251.74 306.35 252.54 307.67 253.33 308.9 254.12 310.04 254.91 311.11 255.71 312.11 256.5 313.05 257.29 313.94 258.08 314.78 258.88 315.58 259.67 316.35 260.46 317.08 261.25 317.79 262.05 318.48 262.84 319.16 263.63 319.81 264.42 320.44 265.22 321.06 266.01 321.65 266.8 322.23 267.6 322.8 268.39 323.34 269.18 323.87 269.97 324.38 270.77 324.87 271.56 325.34 272.35 325.8 273.14 326.25 273.94 326.68 274.73 327.1 275.52 327.51 276.31 327.92 277.11 328.31 277.9 328.69 278.69 329.07 279.48 329.43 280.28 329.78 281.07 330.11 281.86 330.41 282.65 330.69 283.45 330.93 284.24 331.12 285.03 331.27 285.82 331.36 286.62 331.4 287.41 331.36 288.2 331.26 288.99 331.07 289.79 330.79 290.58 330.44 291.37 330 292.16 329.47 292.96 328.87 293.75 328.19 294.54 327.44 295.33 326.61 296.13 325.72 296.92 324.78 297.71 323.79 298.5 322.77 299.3 321.71 300.09 320.63 300.88 319.53 301.67 318.42 302.47 317.3 303.26 316.19 304.05 315.09 304.84 314 305.64 312.92 306.43 311.85 307.22 310.8 308.01 309.77 308.81 308.75 309.6 307.74 310.39 306.75 311.18 305.78 311.98 304.81 312.77 303.85 313.56 302.91 314.35 301.97 315.15 301.04 315.94 300.12 316.73 299.22 317.53 298.32 318.32 297.43 319.11 296.56 319.9 295.7 320.7 294.86 321.49 294.03 322.28 293.22 323.07 292.42 323.87 291.63 324.66 290.85 325.45 290.09 326.24 289.33 327.04 288.58 327.83 287.83 328.62 287.09 329.41 286.35 330.21 285.61 331 284.87 331.79 284.13 332.58 283.39 333.38 282.66 334.17 281.92 334.96 281.18 335.75 280.45 336.55 279.72 337.34 278.99 338.13 278.27 338.92 277.54 339.72 276.82 340.51 276.11 341.3 275.4 342.09 274.69 342.89 273.99 343.68 273.3 344.47 272.62 345.26 271.95 346.06 271.29 346.85 270.66 347.64 270.04 348.43 269.44 349.23 268.87 350.02 268.34 350.81 267.83 351.6 267.35 352.4 266.9 353.19 266.49 353.98 266.11 354.77 265.76 355.57 265.44 356.36 265.15 357.15 264.89 357.94 264.65 358.74 264.43 359.53 264.23 360.32 264.04 361.11 263.87 361.91 263.7 362.7 263.55 363.49 263.4 364.28 263.25 365.08 263.11 365.87 262.97 366.66 262.83 367.46 262.69 368.25 262.55 369.04 262.42 369.83 262.29 370.63 262.16 371.42 262.04 372.21 261.92 373 261.8 373.8 261.69 374.59 261.59 375.38 261.5 376.17 261.41 376.97 261.33 377.76 261.25 378.55 261.18 379.34 261.11 380.14 261.04 380.93 260.98 381.72 260.93 382.51 260.87 383.31 260.82 384.1 260.76 384.89 260.71 385.68 260.66 386.48 260.6 387.27 260.55 388.06 260.5 388.85 260.44 389.65 260.39 390.44 260.33 391.23 260.28 392.02 260.22 392.82 260.17 393.61 260.11 394.4 260.06 395.19 260 395.99 259.95 396.78 259.9 397.57 259.85 398.36 259.8 399.16 259.76 399.95 259.71 400.74 259.66 401.53 259.62 402.33 259.58 403.12 259.53 403.91 259.49 404.7 259.44 405.5 259.4 406.29 259.36 407.08 259.31 407.87 259.27 408.67 259.23 409.46 259.18 410.25 259.14 411.04 259.09 411.84 259.05 412.63 259.01"/>
<path transform="matrix(1,0,0,-1,0,545)" d="M226.38 175.67 227.18 175.96 227.97 176.31 228.76 176.75 229.55 177.26 230.35 177.87 231.14 178.58 231.93 179.39 232.72 180.32 233.52 181.37 234.31 182.56 235.1 183.88 235.89 185.33 236.69 186.9 237.48 188.58 238.27 190.38 239.06 192.28 239.86 194.27 240.65 196.35 241.44 198.48 242.23 200.66 243.03 202.86 243.82 205.08 244.61 207.29 245.4 209.5 246.2 211.66 246.99 213.79 247.78 215.86 248.57 217.87 249.37 219.81 250.16 221.69 250.95 223.48 251.74 225.2 252.54 226.83 253.33 228.37 254.12 229.83 254.91 231.2 255.71 232.49 256.5 233.69 257.29 234.81 258.08 235.85 258.88 236.79 259.67 237.65 260.46 238.45 261.25 239.17 262.05 239.82 262.84 240.42 263.63 240.96 264.42 241.44 265.22 241.88 266.01 242.29 266.8 242.66 267.6 243.01 268.39 243.34 269.18 243.66 269.97 243.96 270.77 244.25 271.56 244.54 272.35 244.82 273.14 245.09 273.94 245.36 274.73 245.61 275.52 245.86 276.31 246.1 277.11 246.31 277.9 246.51 278.69 246.68 279.48 246.82 280.28 246.92 281.07 246.99 281.86 247.01 282.65 246.98 283.45 246.88 284.24 246.74 285.03 246.52 285.82 246.25 286.62 245.91 287.41 245.49 288.2 245.01 288.99 244.45 289.79 243.81 290.58 243.11 291.37 242.35 292.16 241.52 292.96 240.64 293.75 239.71 294.54 238.74 295.33 237.74 296.13 236.7 296.92 235.65 297.71 234.6 298.5 233.54 299.3 232.49 300.09 231.45 300.88 230.43 301.67 229.43 302.47 228.47 303.26 227.53 304.05 226.63 304.84 225.75 305.64 224.9 306.43 224.08 307.22 223.29 308.01 222.52 308.81 221.76 309.6 221.02 310.39 220.28 311.18 219.55 311.98 218.83 312.77 218.1 313.56 217.37 314.35 216.63 315.15 215.88 315.94 215.12 316.73 214.34 317.53 213.56 318.32 212.75 319.11 211.94 319.9 211.1 320.7 210.25 321.49 209.38 322.28 208.5 323.07 207.62 323.87 206.72 324.66 205.82 325.45 204.92 326.24 204.03 327.04 203.14 327.83 202.26 328.62 201.4 329.41 200.55 330.21 199.72 331 198.92 331.79 198.14 332.58 197.4 333.38 196.67 334.17 195.97 334.96 195.3 335.75 194.65 336.55 194.03 337.34 193.43 338.13 192.85 338.92 192.29 339.72 191.74 340.51 191.22 341.3 190.71 342.09 190.21 342.89 189.73 343.68 189.26 344.47 188.81 345.26 188.37 346.06 187.94 346.85 187.52 347.64 187.11 348.43 186.71 349.23 186.33 350.02 185.95 350.81 185.59 351.6 185.24 352.4 184.9 353.19 184.57 353.98 184.25 354.77 183.94 355.57 183.64 356.36 183.35 357.15 183.07 357.94 182.8 358.74 182.53 359.53 182.28 360.32 182.03 361.11 181.78 361.91 181.54 362.7 181.31 363.49 181.09 364.28 180.87 365.08 180.66 365.87 180.45 366.66 180.25 367.46 180.06 368.25 179.87 369.04 179.68 369.83 179.51 370.63 179.34 371.42 179.17 372.21 179.01 373 178.86 373.8 178.71 374.59 178.56 375.38 178.42 376.17 178.29 376.97 178.16 377.76 178.03 378.55 177.91 379.34 177.8 380.14 177.69 380.93 177.58 381.72 177.48 382.51 177.38 383.31 177.29 384.1 177.21 384.89 177.13 385.68 177.05 386.48 176.98 387.27 176.92 388.06 176.86 388.85 176.81 389.65 176.76 390.44 176.72 391.23 176.68 392.02 176.65 392.82 176.63 393.61 176.61 394.4 176.59 395.19 176.57 395.99 176.56 396.78 176.55H397.57L398.36 176.54 399.16 176.53H399.95L400.74 176.52 401.53 176.51 402.33 176.5 403.12 176.48 403.91 176.46 404.7 176.44 405.5 176.42 406.29 176.39 407.08 176.36 407.87 176.33 408.67 176.3 409.46 176.27 410.25 176.23 411.04 176.2 411.84 176.16 412.63 176.13 413.42 176.09 414.21 176.06 415.01 176.03 415.8 176 416.59 175.97 417.39 175.94 418.18 175.91 418.97 175.89 419.76 175.86 420.56 175.83 421.35 175.8 422.14 175.77 422.93 175.74 423.73 175.71 424.52 175.68 425.31 175.65 426.1 175.61 426.9 175.58 427.69 175.54V174.59H426.9 426.1 425.31 424.52 423.73 422.93 422.14 421.35 420.56 419.76 418.97 418.18 417.39 416.59 415.8 415.01 414.21 413.42 412.63 411.84 411.04 410.25 409.46 408.67 407.87 407.08 406.29 405.5 404.7 403.91 403.12 402.33 401.53 400.74 399.95 399.16 398.36 397.57 396.78 395.99 395.19 394.4 393.61 392.82 392.02 391.23 390.44 389.65 388.85 388.06 387.27 386.48 385.68 384.89 384.1 383.31 382.51 381.72 380.93 380.14 379.34 378.55 377.76 376.97 376.17 375.38 374.59 373.8 373 372.21 371.42 370.63 369.83 369.04 368.25 367.46 366.66 365.87 365.08 364.28 363.49 362.7 361.91 361.11 360.32 359.53 358.74 357.94 357.15 356.36 355.57 354.77 353.98 353.19 352.4 351.6 350.81 350.02 349.23 348.43 347.64 346.85 346.06 345.26 344.47 343.68 342.89 342.09 341.3 340.51 339.72 338.92 338.13 337.34 336.55 335.75 334.96 334.17 333.38 332.58 331.79 331 330.21 329.41 328.62 327.83 327.04 326.24 325.45 324.66 323.87 323.07 322.28 321.49 320.7 319.9 319.11 318.32 317.53 316.73 315.94 315.15 314.35 313.56 312.77 311.98 311.18 310.39 309.6 308.81 308.01 307.22 306.43 305.64 304.84 304.05 303.26 302.47 301.67 300.88 300.09 299.3 298.5 297.71 296.92 296.13 295.33 294.54 293.75 292.96 292.16 291.37 290.58 289.79 288.99 288.2 287.41 286.62 285.82 285.03 284.24 283.45 282.65 281.86 281.07 280.28 279.48 278.69 277.9 277.11 276.31 275.52 274.73 273.94 273.14 272.35 271.56 270.77 269.97 269.18 268.39 267.6 266.8 266.01 265.22 264.42 263.63 262.84 262.05 261.25 260.46 259.67 258.88 258.08 257.29 256.5 255.71 254.91 254.12 253.33 252.54 251.74 250.95 250.16 249.37 248.57 247.78 246.99 246.2 245.4 244.61 243.82 243.03 242.23 241.44 240.65 239.86 239.06 238.27 237.48 236.69 235.89 235.1 234.31 233.52 232.72 231.93 231.14 230.35 229.55 228.76 227.97 227.18 226.38Z" fill="#a3a500" fill-opacity=".851"/>
<path transform="matrix(1,0,0,-1,0,545)" stroke-width=".85" stroke-linecap="round" stroke-linejoin="round" fill="none" stroke="#000000" d="M226.38 175.67 227.18 175.96 227.97 176.31 228.76 176.75 229.55 177.26 230.35 177.87 231.14 178.58 231.93 179.39 232.72 180.32 233.52 181.37 234.31 182.56 235.1 183.88 235.89 185.33 236.69 186.9 237.48 188.58 238.27 190.38 239.06 192.28 239.86 194.27 240.65 196.35 241.44 198.48 242.23 200.66 243.03 202.86 243.82 205.08 244.61 207.29 245.4 209.5 246.2 211.66 246.99 213.79 247.78 215.86 248.57 217.87 249.37 219.81 250.16 221.69 250.95 223.48 251.74 225.2 252.54 226.83 253.33 228.37 254.12 229.83 254.91 231.2 255.71 232.49 256.5 233.69 257.29 234.81 258.08 235.85 258.88 236.79 259.67 237.65 260.46 238.45 261.25 239.17 262.05 239.82 262.84 240.42 263.63 240.96 264.42 241.44 265.22 241.88 266.01 242.29 266.8 242.66 267.6 243.01 268.39 243.34 269.18 243.66 269.97 243.96 270.77 244.25 271.56 244.54 272.35 244.82 273.14 245.09 273.94 245.36 274.73 245.61 275.52 245.86 276.31 246.1 277.11 246.31 277.9 246.51 278.69 246.68 279.48 246.82 280.28 246.92 281.07 246.99 281.86 247.01 282.65 246.98 283.45 246.88 284.24 246.74 285.03 246.52 285.82 246.25 286.62 245.91 287.41 245.49 288.2 245.01 288.99 244.45 289.79 243.81 290.58 243.11 291.37 242.35 292.16 241.52 292.96 240.64 293.75 239.71 294.54 238.74 295.33 237.74 296.13 236.7 296.92 235.65 297.71 234.6 298.5 233.54 299.3 232.49 300.09 231.45 300.88 230.43 301.67 229.43 302.47 228.47 303.26 227.53 304.05 226.63 304.84 225.75 305.64 224.9 306.43 224.08 307.22 223.29 308.01 222.52 308.81 221.76 309.6 221.02 310.39 220.28 311.18 219.55 311.98 218.83 312.77 218.1 313.56 217.37 314.35 216.63 315.15 215.88 315.94 215.12 316.73 214.34 317.53 213.56 318.32 212.75 319.11 211.94 319.9 211.1 320.7 210.25 321.49 209.38 322.28 208.5 323.07 207.62 323.87 206.72 324.66 205.82 325.45 204.92 326.24 204.03 327.04 203.14 327.83 202.26 328.62 201.4 329.41 200.55 330.21 199.72 331 198.92 331.79 198.14 332.58 197.4 333.38 196.67 334.17 195.97 334.96 195.3 335.75 194.65 336.55 194.03 337.34 193.43 338.13 192.85 338.92 192.29 339.72 191.74 340.51 191.22 341.3 190.71 342.09 190.21 342.89 189.73 343.68 189.26 344.47 188.81 345.26 188.37 346.06 187.94 346.85 187.52 347.64 187.11 348.43 186.71 349.23 186.33 350.02 185.95 350.81 185.59 351.6 185.24 352.4 184.9 353.19 184.57 353.98 184.25 354.77 183.94 355.57 183.64 356.36 183.35 357.15 183.07 357.94 182.8 358.74 182.53 359.53 182.28 360.32 182.03 361.11 181.78 361.91 181.54 362.7 181.31 363.49 181.09 364.28 180.87 365.08 180.66 365.87 180.45 366.66 180.25 367.46 180.06 368.25 179.87 369.04 179.68 369.83 179.51 370.63 179.34 371.42 179.17 372.21 179.01 373 178.86 373.8 178.71 374.59 178.56 375.38 178.42 376.17 178.29 376.97 178.16 377.76 178.03 378.55 177.91 379.34 177.8 380.14 177.69 380.93 177.58 381.72 177.48 382.51 177.38 383.31 177.29 384.1 177.21 384.89 177.13 385.68 177.05 386.48 176.98 387.27 176.92 388.06 176.86 388.85 176.81 389.65 176.76 390.44 176.72 391.23 176.68 392.02 176.65 392.82 176.63 393.61 176.61 394.4 176.59 395.19 176.57 395.99 176.56 396.78 176.55H397.57L398.36 176.54 399.16 176.53H399.95L400.74 176.52 401.53 176.51 402.33 176.5 403.12 176.48 403.91 176.46 404.7 176.44 405.5 176.42 406.29 176.39 407.08 176.36 407.87 176.33 408.67 176.3 409.46 176.27 410.25 176.23 411.04 176.2 411.84 176.16 412.63 176.13 413.42 176.09 414.21 176.06 415.01 176.03 415.8 176 416.59 175.97 417.39 175.94 418.18 175.91 418.97 175.89 419.76 175.86 420.56 175.83 421.35 175.8 422.14 175.77 422.93 175.74 423.73 175.71 424.52 175.68 425.31 175.65 426.1 175.61 426.9 175.58 427.69 175.54"/>
<path transform="matrix(1,0,0,-1,0,545)" d="M144.75 92.19 145.54 92.5 146.34 92.88 147.13 93.33 147.92 93.88 148.71 94.53 149.51 95.31 150.3 96.2 151.09 97.2 151.88 98.33 152.68 99.58 153.47 100.93 154.26 102.39 155.05 103.94 155.85 105.56 156.64 107.21 157.43 108.86 158.22 110.5 159.02 112.07 159.81 113.56 160.6 114.94 161.39 116.14 162.19 117.16 162.98 117.98 163.77 118.6 164.56 119 165.36 119.19 166.15 119.17 166.94 118.95 167.73 118.53 168.53 117.98 169.32 117.3 170.11 116.54 170.91 115.71 171.7 114.85 172.49 113.98 173.28 113.12 174.08 112.32 174.87 111.56 175.66 110.88 176.45 110.27 177.25 109.74 178.04 109.29 178.83 108.93 179.62 108.65 180.42 108.44 181.21 108.29 182 108.2 182.79 108.16H183.59L184.38 108.19 185.17 108.26 185.96 108.36 186.76 108.48 187.55 108.62 188.34 108.78 189.13 108.96 189.93 109.16 190.72 109.39 191.51 109.65 192.3 109.94 193.1 110.26 193.89 110.63 194.68 111.03 195.47 111.48 196.27 111.98 197.06 112.52 197.85 113.11 198.64 113.76 199.44 114.44 200.23 115.17 201.02 115.93 201.81 116.73 202.61 117.56 203.4 118.41 204.19 119.29 204.98 120.18 205.78 121.08 206.57 121.99 207.36 122.91 208.15 123.84 208.95 124.77 209.74 125.7 210.53 126.64 211.32 127.58 212.12 128.53 212.91 129.5 213.7 130.47 214.49 131.46 215.29 132.46 216.08 133.48 216.87 134.52 217.66 135.58 218.46 136.65 219.25 137.74 220.04 138.84 220.84 139.94 221.63 141.06 222.42 142.17 223.21 143.27 224.01 144.35 224.8 145.41 225.59 146.44 226.38 147.41 227.18 148.33 227.97 149.16 228.76 149.89 229.55 150.51 230.35 151 231.14 151.35 231.93 151.54 232.72 151.56 233.52 151.39 234.31 151 235.1 150.4 235.89 149.59 236.69 148.6 237.48 147.41 238.27 146.04 239.06 144.52 239.86 142.86 240.65 141.07 241.44 139.2 242.23 137.29 243.03 135.36 243.82 133.44 244.61 131.56 245.4 129.75 246.2 128.04 246.99 126.45 247.78 124.99 248.57 123.67 249.37 122.49 250.16 121.47 250.95 120.6 251.74 119.87 252.54 119.3 253.33 118.86 254.12 118.53 254.91 118.32 255.71 118.2 256.5 118.16 257.29 118.19 258.08 118.28 258.88 118.42 259.67 118.6 260.46 118.8 261.25 119.02 262.05 119.25 262.84 119.48 263.63 119.71 264.42 119.94 265.22 120.15 266.01 120.35 266.8 120.53 267.6 120.7 268.39 120.85 269.18 120.98 269.97 121.11 270.77 121.22 271.56 121.32 272.35 121.41 273.14 121.51 273.94 121.61 274.73 121.71 275.52 121.81 276.31 121.93 277.11 122.06 277.9 122.2 278.69 122.36 279.48 122.53 280.28 122.7 281.07 122.89 281.86 123.09 282.65 123.29 283.45 123.49 284.24 123.68 285.03 123.85 285.82 124.01 286.62 124.15 287.41 124.26 288.2 124.34 288.99 124.37 289.79 124.36 290.58 124.31 291.37 124.21 292.16 124.06 292.96 123.87 293.75 123.63 294.54 123.35 295.33 123.02 296.13 122.65 296.92 122.26 297.71 121.84 298.5 121.39 299.3 120.92 300.09 120.43 300.88 119.93 301.67 119.41 302.47 118.89 303.26 118.35 304.05 117.81 304.84 117.25 305.64 116.69 306.43 116.12 307.22 115.53 308.01 114.94 308.81 114.34 309.6 113.73 310.39 113.12 311.18 112.5 311.98 111.88 312.77 111.26 313.56 110.64 314.35 110.03 315.15 109.42 315.94 108.83 316.73 108.25 317.53 107.69 318.32 107.15 319.11 106.63 319.9 106.14 320.7 105.68 321.49 105.24 322.28 104.83 323.07 104.45 323.87 104.1 324.66 103.77 325.45 103.47 326.24 103.2 327.04 102.94 327.83 102.7 328.62 102.48 329.41 102.26 330.21 102.05 331 101.85 331.79 101.65 332.58 101.45 333.38 101.25 334.17 101.05 334.96 100.84 335.75 100.62 336.55 100.4 337.34 100.17 338.13 99.94 338.92 99.71 339.72 99.47 340.51 99.23 341.3 98.99 342.09 98.76 342.89 98.52 343.68 98.3 344.47 98.08 345.26 97.87 346.06 97.66 346.85 97.47 347.64 97.28 348.43 97.11 349.23 96.95 350.02 96.8 350.81 96.65 351.6 96.52 352.4 96.4 353.19 96.28 353.98 96.17 354.77 96.06 355.57 95.96 356.36 95.87 357.15 95.77 357.94 95.67 358.74 95.57 359.53 95.47 360.32 95.37 361.11 95.26 361.91 95.14 362.7 95.02 363.49 94.89 364.28 94.76 365.08 94.63 365.87 94.48 366.66 94.34 367.46 94.2 368.25 94.05 369.04 93.9 369.83 93.76 370.63 93.62 371.42 93.49 372.21 93.36 373 93.24 373.8 93.13 374.59 93.03 375.38 92.93 376.17 92.84 376.97 92.76 377.76 92.69 378.55 92.63 379.34 92.57 380.14 92.51 380.93 92.46 381.72 92.42 382.51 92.38 383.31 92.34 384.1 92.3 384.89 92.27 385.68 92.24 386.48 92.21 387.27 92.18 388.06 92.16 388.85 92.14 389.65 92.12 390.44 92.1 391.23 92.08 392.02 92.07 392.82 92.05 393.61 92.04V91.12H392.82 392.02 391.23 390.44 389.65 388.85 388.06 387.27 386.48 385.68 384.89 384.1 383.31 382.51 381.72 380.93 380.14 379.34 378.55 377.76 376.97 376.17 375.38 374.59 373.8 373 372.21 371.42 370.63 369.83 369.04 368.25 367.46 366.66 365.87 365.08 364.28 363.49 362.7 361.91 361.11 360.32 359.53 358.74 357.94 357.15 356.36 355.57 354.77 353.98 353.19 352.4 351.6 350.81 350.02 349.23 348.43 347.64 346.85 346.06 345.26 344.47 343.68 342.89 342.09 341.3 340.51 339.72 338.92 338.13 337.34 336.55 335.75 334.96 334.17 333.38 332.58 331.79 331 330.21 329.41 328.62 327.83 327.04 326.24 325.45 324.66 323.87 323.07 322.28 321.49 320.7 319.9 319.11 318.32 317.53 316.73 315.94 315.15 314.35 313.56 312.77 311.98 311.18 310.39 309.6 308.81 308.01 307.22 306.43 305.64 304.84 304.05 303.26 302.47 301.67 300.88 300.09 299.3 298.5 297.71 296.92 296.13 295.33 294.54 293.75 292.96 292.16 291.37 290.58 289.79 288.99 288.2 287.41 286.62 285.82 285.03 284.24 283.45 282.65 281.86 281.07 280.28 279.48 278.69 277.9 277.11 276.31 275.52 274.73 273.94 273.14 272.35 271.56 270.77 269.97 269.18 268.39 267.6 266.8 266.01 265.22 264.42 263.63 262.84 262.05 261.25 260.46 259.67 258.88 258.08 257.29 256.5 255.71 254.91 254.12 253.33 252.54 251.74 250.95 250.16 249.37 248.57 247.78 246.99 246.2 245.4 244.61 243.82 243.03 242.23 241.44 240.65 239.86 239.06 238.27 237.48 236.69 235.89 235.1 234.31 233.52 232.72 231.93 231.14 230.35 229.55 228.76 227.97 227.18 226.38 225.59 224.8 224.01 223.21 222.42 221.63 220.84 220.04 219.25 218.46 217.66 216.87 216.08 215.29 214.49 213.7 212.91 212.12 211.32 210.53 209.74 208.95 208.15 207.36 206.57 205.78 204.98 204.19 203.4 202.61 201.81 201.02 200.23 199.44 198.64 197.85 197.06 196.27 195.47 194.68 193.89 193.1 192.3 191.51 190.72 189.93 189.13 188.34 187.55 186.76 185.96 185.17 184.38 183.59 182.79 182 181.21 180.42 179.62 178.83 178.04 177.25 176.45 175.66 174.87 174.08 173.28 172.49 171.7 170.91 170.11 169.32 168.53 167.73 166.94 166.15 165.36 164.56 163.77 162.98 162.19 161.39 160.6 159.81 159.02 158.22 157.43 156.64 155.85 155.05 154.26 153.47 152.68 151.88 151.09 150.3 149.51 148.71 147.92 147.13 146.34 145.54 144.75Z" fill="#f8766d" fill-opacity=".851"/>
<path transform="matrix(1,0,0,-1,0,545)" stroke-width=".85" stroke-linecap="round" stroke-linejoin="round" fill="none" stroke="#000000" d="M144.75 92.19 145.54 92.5 146.34 92.88 147.13 93.33 147.92 93.88 148.71 94.53 149.51 95.31 150.3 96.2 151.09 97.2 151.88 98.33 152.68 99.58 153.47 100.93 154.26 102.39 155.05 103.94 155.85 105.56 156.64 107.21 157.43 108.86 158.22 110.5 159.02 112.07 159.81 113.56 160.6 114.94 161.39 116.14 162.19 117.16 162.98 117.98 163.77 118.6 164.56 119 165.36 119.19 166.15 119.17 166.94 118.95 167.73 118.53 168.53 117.98 169.32 117.3 170.11 116.54 170.91 115.71 171.7 114.85 172.49 113.98 173.28 113.12 174.08 112.32 174.87 111.56 175.66 110.88 176.45 110.27 177.25 109.74 178.04 109.29 178.83 108.93 179.62 108.65 180.42 108.44 181.21 108.29 182 108.2 182.79 108.16H183.59L184.38 108.19 185.17 108.26 185.96 108.36 186.76 108.48 187.55 108.62 188.34 108.78 189.13 108.96 189.93 109.16 190.72 109.39 191.51 109.65 192.3 109.94 193.1 110.26 193.89 110.63 194.68 111.03 195.47 111.48 196.27 111.98 197.06 112.52 197.85 113.11 198.64 113.76 199.44 114.44 200.23 115.17 201.02 115.93 201.81 116.73 202.61 117.56 203.4 118.41 204.19 119.29 204.98 120.18 205.78 121.08 206.57 121.99 207.36 122.91 208.15 123.84 208.95 124.77 209.74 125.7 210.53 126.64 211.32 127.58 212.12 128.53 212.91 129.5 213.7 130.47 214.49 131.46 215.29 132.46 216.08 133.48 216.87 134.52 217.66 135.58 218.46 136.65 219.25 137.74 220.04 138.84 220.84 139.94 221.63 141.06 222.42 142.17 223.21 143.27 224.01 144.35 224.8 145.41 225.59 146.44 226.38 147.41 227.18 148.33 227.97 149.16 228.76 149.89 229.55 150.51 230.35 151 231.14 151.35 231.93 151.54 232.72 151.56 233.52 151.39 234.31 151 235.1 150.4 235.89 149.59 236.69 148.6 237.48 147.41 238.27 146.04 239.06 144.52 239.86 142.86 240.65 141.07 241.44 139.2 242.23 137.29 243.03 135.36 243.82 133.44 244.61 131.56 245.4 129.75 246.2 128.04 246.99 126.45 247.78 124.99 248.57 123.67 249.37 122.49 250.16 121.47 250.95 120.6 251.74 119.87 252.54 119.3 253.33 118.86 254.12 118.53 254.91 118.32 255.71 118.2 256.5 118.16 257.29 118.19 258.08 118.28 258.88 118.42 259.67 118.6 260.46 118.8 261.25 119.02 262.05 119.25 262.84 119.48 263.63 119.71 264.42 119.94 265.22 120.15 266.01 120.35 266.8 120.53 267.6 120.7 268.39 120.85 269.18 120.98 269.97 121.11 270.77 121.22 271.56 121.32 272.35 121.41 273.14 121.51 273.94 121.61 274.73 121.71 275.52 121.81 276.31 121.93 277.11 122.06 277.9 122.2 278.69 122.36 279.48 122.53 280.28 122.7 281.07 122.89 281.86 123.09 282.65 123.29 283.45 123.49 284.24 123.68 285.03 123.85 285.82 124.01 286.62 124.15 287.41 124.26 288.2 124.34 288.99 124.37 289.79 124.36 290.58 124.31 291.37 124.21 292.16 124.06 292.96 123.87 293.75 123.63 294.54 123.35 295.33 123.02 296.13 122.65 296.92 122.26 297.71 121.84 298.5 121.39 299.3 120.92 300.09 120.43 300.88 119.93 301.67 119.41 302.47 118.89 303.26 118.35 304.05 117.81 304.84 117.25 305.64 116.69 306.43 116.12 307.22 115.53 308.01 114.94 308.81 114.34 309.6 113.73 310.39 113.12 311.18 112.5 311.98 111.88 312.77 111.26 313.56 110.64 314.35 110.03 315.15 109.42 315.94 108.83 316.73 108.25 317.53 107.69 318.32 107.15 319.11 106.63 319.9 106.14 320.7 105.68 321.49 105.24 322.28 104.83 323.07 104.45 323.87 104.1 324.66 103.77 325.45 103.47 326.24 103.2 327.04 102.94 327.83 102.7 328.62 102.48 329.41 102.26 330.21 102.05 331 101.85 331.79 101.65 332.58 101.45 333.38 101.25 334.17 101.05 334.96 100.84 335.75 100.62 336.55 100.4 337.34 100.17 338.13 99.94 338.92 99.71 339.72 99.47 340.51 99.23 341.3 98.99 342.09 98.76 342.89 98.52 343.68 98.3 344.47 98.08 345.26 97.87 346.06 97.66 346.85 97.47 347.64 97.28 348.43 97.11 349.23 96.95 350.02 96.8 350.81 96.65 351.6 96.52 352.4 96.4 353.19 96.28 353.98 96.17 354.77 96.06 355.57 95.96 356.36 95.87 357.15 95.77 357.94 95.67 358.74 95.57 359.53 95.47 360.32 95.37 361.11 95.26 361.91 95.14 362.7 95.02 363.49 94.89 364.28 94.76 365.08 94.63 365.87 94.48 366.66 94.34 367.46 94.2 368.25 94.05 369.04 93.9 369.83 93.76 370.63 93.62 371.42 93.49 372.21 93.36 373 93.24 373.8 93.13 374.59 93.03 375.38 92.93 376.17 92.84 376.97 92.76 377.76 92.69 378.55 92.63 379.34 92.57 380.14 92.51 380.93 92.46 381.72 92.42 382.51 92.38 383.31 92.34 384.1 92.3 384.89 92.27 385.68 92.24 386.48 92.21 387.27 92.18 388.06 92.16 388.85 92.14 389.65 92.12 390.44 92.1 391.23 92.08 392.02 92.07 392.82 92.05 393.61 92.04"/>
</g>
<path transform="matrix(1,0,0,-1,0,545)" stroke-width="1.36" stroke-linecap="square" stroke-linejoin="round" fill="none" stroke="#000000" d="M120.54 41.04V516.81"/>
<text xml:space="preserve" transform="matrix(1 0 -0 1 0 545)" font-size="11" font-family="Nimbus Sans"><tspan y="-87.17" x="45.19 53.132 59.248 62.306 69.643 75.143 84.306 90.422 93.479999 99.59599 108.758998">No Symptoms</tspan></text>
<text xml:space="preserve" transform="matrix(1 0 -0 1 0 545)" font-size="11" font-family="Nimbus Sans"><tspan y="-170.64" x="31.75 40.913003 43.355005 49.471006 55.587007 59.250009 62.308008 69.645008 75.145008 84.30801 90.424 93.482 99.598 108.761">Minor Symptoms</tspan></text>
<text xml:space="preserve" transform="matrix(1 0 -0 1 0 545)" font-size="11" font-family="Nimbus Sans"><tspan y="-254.11" x="39.09 48.253004 50.695005 53.137006 59.253007 62.311006 69.648 75.148 84.311008 90.427 93.485 99.601 108.764">Mild Symptoms</tspan></text>
<text xml:space="preserve" transform="matrix(1 0 -0 1 0 545)" font-size="11" font-family="Nimbus Sans"><tspan y="-337.58" x="31.75 40.913003 47.029005 49.471006 55.587007 59.250009 62.308008 69.645008 75.145008 84.30801 90.424 93.482 99.598 108.761">Major Symptoms</tspan></text>
<text xml:space="preserve" transform="matrix(1 0 -0 1 0 545)" font-size="11" font-family="Nimbus Sans"><tspan y="-421.05" x="25.01 32.347 38.133 43.357999 49.474 53.137 59.253004 62.311 69.648 75.148 84.311008 90.427 93.485 99.601 108.764">Severe Symptoms</tspan></text>
<path transform="matrix(1,0,0,-1,0,545)" stroke-width="1.36" stroke-linecap="butt" stroke-linejoin="round" fill="none" stroke="#000000" d="M117.05 91.12H120.54"/>
<path transform="matrix(1,0,0,-1,0,545)" stroke-width="1.36" stroke-linecap="butt" stroke-linejoin="round" fill="none" stroke="#000000" d="M117.05 174.59H120.54"/>
<path transform="matrix(1,0,0,-1,0,545)" stroke-width="1.36" stroke-linecap="butt" stroke-linejoin="round" fill="none" stroke="#000000" d="M117.05 258.06H120.54"/>
<path transform="matrix(1,0,0,-1,0,545)" stroke-width="1.36" stroke-linecap="butt" stroke-linejoin="round" fill="none" stroke="#000000" d="M117.05 341.53H120.54"/>
<path transform="matrix(1,0,0,-1,0,545)" stroke-width="1.36" stroke-linecap="butt" stroke-linejoin="round" fill="none" stroke="#000000" d="M117.05 425H120.54"/>
<path transform="matrix(1,0,0,-1,0,545)" stroke-width="1.36" stroke-linecap="square" stroke-linejoin="round" fill="none" stroke="#000000" d="M120.54 41.04H566.03"/>
<path transform="matrix(1,0,0,-1,0,545)" stroke-width="1.36" stroke-linecap="butt" stroke-linejoin="round" fill="none" stroke="#000000" d="M163.51 37.55V41.04"/>
<path transform="matrix(1,0,0,-1,0,545)" stroke-width="1.36" stroke-linecap="butt" stroke-linejoin="round" fill="none" stroke="#000000" d="M292.94 37.55V41.04"/>
<path transform="matrix(1,0,0,-1,0,545)" stroke-width="1.36" stroke-linecap="butt" stroke-linejoin="round" fill="none" stroke="#000000" d="M422.36 37.55V41.04"/>
<path transform="matrix(1,0,0,-1,0,545)" stroke-width="1.36" stroke-linecap="butt" stroke-linejoin="round" fill="none" stroke="#000000" d="M551.78 37.55V41.04"/>
<text xml:space="preserve" transform="matrix(1 0 -0 1 0 545)" font-size="11" font-family="Nimbus Sans"><tspan y="-26.86" x="160.46">0</tspan></text>
<text xml:space="preserve" transform="matrix(1 0 -0 1 0 545)" font-size="11" font-family="Nimbus Sans"><tspan y="-26.86" x="289.88">5</tspan></text>
<text xml:space="preserve" transform="matrix(1 0 -0 1 0 545)" font-size="11" font-family="Nimbus Sans"><tspan y="-26.86" x="416.24 422.356">10</tspan></text>
<text xml:space="preserve" transform="matrix(1 0 -0 1 0 545)" font-size="11" font-family="Nimbus Sans"><tspan y="-26.86" x="545.67 551.786">15</tspan></text>
<text xml:space="preserve" transform="matrix(1 0 -0 1 0 545)" font-size="14" font-family="Nimbus Sans" font-weight="bold"><tspan y="-9.97" x="227.85 237.39801 245.182 252.966 258.41203 266.056 274.75 282.534 286.426 296.534 304.318 308.21 311.892 319.676 323.568 332.906 340.69 346.13603 353.92 361.704 370.258 374.15 382.70399 386.59599 399.042 406.826 410.718 415.37998 423.93397 432.48796 441.04194 446.27796 454.06196">Average Daily Screen Time (hours)</tspan></text>
<text xml:space="preserve" transform="matrix(0 -1 1 0 0 545)" font-size="14" font-family="Nimbus Sans" font-weight="bold"><tspan y="17.03" x="213.29 223.398 231.18199 238.96599 242.85799 247.51999 256.07398 259.96598 263.85798 276.304 284.85798 292.64198 300.42597 305.08796 308.97996 317.53395 325.10795 332.89195 340.67594">Health Impact Level</tspan></text>
<text xml:space="preserve" transform="matrix(1 0 -0 1 0 545)" font-size="16" font-family="Nimbus Sans" font-weight="bold"><tspan y="-526.79" x="120.54 130.316 134.76399 144.54 154.316 160.54 169.43599 173.88399 182.77999 187.22798 191.67598 203.22798 207.67598 216.57198 221.89998 228.12398 232.57198 242.02797 251.80397 257.13197 261.57997 271.35597 281.13197 285.57997 295.35597 300.68397 305.13197 315.80397 324.69996 330.92396 339.81996 348.71595 358.49195 362.93995 372.71595 377.16395 391.38795 400.28395 404.73194 414.18794 423.08393 427.53193 439.08393 447.97993 456.87593 461.3239 466.65193 476.42793 480.87593 485.3239 499.5479 509.3239 518.2199 527.1159 532.4439 536.8919 547.5639 556.2199 565.1159 574.0119 580.2359 584.6839 590.0119">Figure 7. Distribution of Screen Time by Health Impact Severity</tspan></text>
</svg>
