<svg xmlns="http://www.w3.org/2000/svg" xmlns:xlink="http://www.w3.org/1999/xlink" xmlns:inkscape="http://www.inkscape.org/namespaces/inkscape" version="1.1" width="799" height="577" viewBox="0 0 799 577">
<defs>
<clipPath id="clip_1">
<path transform="matrix(1,0,0,-1,0,577)" d="M35.79 41.04H792.52999V531.22H35.79Z"/>
</clipPath>
</defs>
<path transform="matrix(1,0,0,-1,0,577)" d="M0 0H799.5V577.5H0Z" fill="#ffffff"/>
<path transform="matrix(1,0,0,-1,0,577)" stroke-width="1.36" stroke-linecap="round" stroke-linejoin="round" fill="none" stroke="#ffffff" d="M0 0H799.5V577.5H0Z"/>
<g clip-path="url(#clip_1)">
<path transform="matrix(1,0,0,-1,0,577)" d="M35.79 41.04H792.52999V531.22H35.79Z" fill="#ffffff"/>
<path transform="matrix(1,0,0,-1,0,577)" d="M70.19 508.94 138.98 505.89 207.78 499.14 276.57 437.67 345.36 440.79 414.16 436.89 482.95 435.78 551.75 430.88 620.54 439.62 689.34 446.9 758.13 432.96V239.17L689.34 233.87 620.54 240.54 551.75 230.78 482.95 238.17 414.16 234.73 345.36 239.8 276.57 233.33 207.78 63.32 138.98 70.15 70.19 76.63Z" fill="#2c7fb8" fill-opacity=".149"/>
<path transform="matrix(1,0,0,-1,0,577)" stroke-width="3.41" stroke-linecap="butt" stroke-linejoin="round" fill="none" stroke="#1b4965" d="M70.19 292.78 138.98 288.02 207.78 281.23 276.57 335.5 345.36 340.29 414.16 335.81 482.95 336.97 551.75 330.83 620.54 340.08 689.34 340.38 758.13 336.06"/>
<path transform="matrix(1,0,0,-1,0,577)" stroke-width="2.13" stroke-linecap="butt" stroke-dasharray="8.54,8.54" stroke-linejoin="round" fill="none" stroke="#333333" d="M70.19 286.04 78.89 286.65 87.6 287.33 96.31 288.08 105.02 288.91 113.73 289.81 122.44 290.77 131.14 291.81 139.85 292.93 148.56 294.16 157.27 295.51 165.98 296.97 174.68 298.49 183.39 300.06 192.1 301.64 200.81 303.2 209.52 304.73 218.23 306.44 226.93 308.38 235.64 310.48 244.35 312.66 253.06 314.85 261.77 316.97 270.47 318.95 279.18 320.76 287.89 322.82 296.6 325.21 305.31 327.76 314.02 330.33 322.72 332.78 331.43 334.98 340.14 336.76 348.85 338.01 357.56 338.85 366.26 339.37 374.97 339.67 383.68 339.81 392.39 339.87 401.1 339.93 409.8 340.07 418.51 340.26 427.22 340 435.93 339.32 444.64 338.38 453.35 337.33 462.05 336.33 470.76 335.52 479.47 335.06 488.18 334.99 496.89 335.01 505.59 335.05 514.3 335.11 523.01 335.18 531.72 335.27 540.43 335.36 549.14 335.44 557.84 335.54 566.55 335.68 575.26 335.85 583.97 336.05 592.68 336.26 601.38 336.45 610.09 336.62 618.8 336.74 627.51 336.84 636.22 336.94 644.93 337.05 653.63 337.17 662.34 337.28 671.05 337.39 679.76 337.49 688.47 337.58 697.17 337.66 705.88 337.73 714.59 337.79 723.3 337.85 732.01 337.9 740.71 337.95 749.42 337.99 758.13 338.03"/>
<path transform="matrix(1,0,0,-1,0,577)" d="M65.47 292.78C65.47 295.38 67.59 297.5 70.19 297.5 72.78 297.5 74.91 295.38 74.91 292.78 74.91 290.19 72.78 288.07 70.19 288.07 67.59 288.07 65.47 290.19 65.47 292.78" fill="#1b4965"/>
<path transform="matrix(1,0,0,-1,0,577)" stroke-width=".9" stroke-linecap="round" stroke-linejoin="round" fill="none" stroke="#1b4965" d="M65.47 292.78C65.47 295.38 67.59 297.5 70.19 297.5 72.78 297.5 74.91 295.38 74.91 292.78 74.91 290.19 72.78 288.07 70.19 288.07 67.59 288.07 65.47 290.19 65.47 292.78"/>
<path transform="matrix(1,0,0,-1,0,577)" d="M134.26 288.02C134.26 290.61 136.39 292.74 138.98 292.74 141.58 292.74 143.7 290.61 143.7 288.02 143.7 285.42 141.58 283.3 138.98 283.3 136.39 283.3 134.26 285.42 134.26 288.02" fill="#1b4965"/>
<path transform="matrix(1,0,0,-1,0,577)" stroke-width=".9" stroke-linecap="round" stroke-linejoin="round" fill="none" stroke="#1b4965" d="M134.26 288.02C134.26 290.61 136.39 292.74 138.98 292.74 141.58 292.74 143.7 290.61 143.7 288.02 143.7 285.42 141.58 283.3 138.98 283.3 136.39 283.3 134.26 285.42 134.26 288.02"/>
<path transform="matrix(1,0,0,-1,0,577)" d="M203.06 281.23C203.06 283.83 205.18 285.95 207.78 285.95 210.37 285.95 212.49 283.83 212.49 281.23 212.49 278.64 210.37 276.51 207.78 276.51 205.18 276.51 203.06 278.64 203.06 281.23" fill="#1b4965"/>
<path transform="matrix(1,0,0,-1,0,577)" stroke-width=".9" stroke-linecap="round" stroke-linejoin="round" fill="none" stroke="#1b4965" d="M203.06 281.23C203.06 283.83 205.18 285.95 207.78 285.95 210.37 285.95 212.49 283.83 212.49 281.23 212.49 278.64 210.37 276.51 207.78 276.51 205.18 276.51 203.06 278.64 203.06 281.23"/>
<path transform="matrix(1,0,0,-1,0,577)" d="M271.85 335.5C271.85 338.09 273.97 340.22 276.57 340.22 279.17 340.22 281.29 338.09 281.29 335.5 281.29 332.9 279.17 330.78 276.57 330.78 273.97 330.78 271.85 332.9 271.85 335.5" fill="#1b4965"/>
<path transform="matrix(1,0,0,-1,0,577)" stroke-width=".9" stroke-linecap="round" stroke-linejoin="round" fill="none" stroke="#1b4965" d="M271.85 335.5C271.85 338.09 273.97 340.22 276.57 340.22 279.17 340.22 281.29 338.09 281.29 335.5 281.29 332.9 279.17 330.78 276.57 330.78 273.97 330.78 271.85 332.9 271.85 335.5"/>
<path transform="matrix(1,0,0,-1,0,577)" d="M340.65 340.29C340.65 342.89 342.77 345.01 345.36 345.01 347.96 345.01 350.08 342.89 350.08 340.29 350.08 337.7 347.96 335.58 345.36 335.58 342.77 335.58 340.65 337.7 340.65 340.29" fill="#1b4965"/>
<path transform="matrix(1,0,0,-1,0,577)" stroke-width=".9" stroke-linecap="round" stroke-linejoin="round" fill="none" stroke="#1b4965" d="M340.65 340.29C340.65 342.89 342.77 345.01 345.36 345.01 347.96 345.01 350.08 342.89 350.08 340.29 350.08 337.7 347.96 335.58 345.36 335.58 342.77 335.58 340.65 337.7 340.65 340.29"/>
<path transform="matrix(1,0,0,-1,0,577)" d="M409.44 335.81C409.44 338.4 411.56 340.53 414.16 340.53 416.75 340.53 418.88 338.4 418.88 335.81 418.88 333.21 416.75 331.09 414.16 331.09 411.56 331.09 409.44 333.21 409.44 335.81" fill="#1b4965"/>
<path transform="matrix(1,0,0,-1,0,577)" stroke-width=".9" stroke-linecap="round" stroke-linejoin="round" fill="none" stroke="#1b4965" d="M409.44 335.81C409.44 338.4 411.56 340.53 414.16 340.53 416.75 340.53 418.88 338.4 418.88 335.81 418.88 333.21 416.75 331.09 414.16 331.09 411.56 331.09 409.44 333.21 409.44 335.81"/>
<path transform="matrix(1,0,0,-1,0,577)" d="M478.23 336.97C478.23 339.57 480.36 341.69 482.95 341.69 485.55 341.69 487.67 339.57 487.67 336.97 487.67 334.38 485.55 332.25 482.95 332.25 480.36 332.25 478.23 334.38 478.23 336.97" fill="#1b4965"/>
<path transform="matrix(1,0,0,-1,0,577)" stroke-width=".9" stroke-linecap="round" stroke-linejoin="round" fill="none" stroke="#1b4965" d="M478.23 336.97C478.23 339.57 480.36 341.69 482.95 341.69 485.55 341.69 487.67 339.57 487.67 336.97 487.67 334.38 485.55 332.25 482.95 332.25 480.36 332.25 478.23 334.38 478.23 336.97"/>
<path transform="matrix(1,0,0,-1,0,577)" d="M547.03 330.83C547.03 333.43 549.15 335.55 551.75 335.55 554.34 335.55 556.47 333.43 556.47 330.83 556.47 328.24 554.34 326.11 551.75 326.11 549.15 326.11 547.03 328.24 547.03 330.83" fill="#1b4965"/>
<path transform="matrix(1,0,0,-1,0,577)" stroke-width=".9" stroke-linecap="round" stroke-linejoin="round" fill="none" stroke="#1b4965" d="M547.03 330.83C547.03 333.43 549.15 335.55 551.75 335.55 554.34 335.55 556.47 333.43 556.47 330.83 556.47 328.24 554.34 326.11 551.75 326.11 549.15 326.11 547.03 328.24 547.03 330.83"/>
<path transform="matrix(1,0,0,-1,0,577)" d="M615.82 340.08C615.82 342.67 617.95 344.8 620.54 344.8 623.14 344.8 625.26 342.67 625.26 340.08 625.26 337.48 623.14 335.36 620.54 335.36 617.95 335.36 615.82 337.48 615.82 340.08" fill="#1b4965"/>
<path transform="matrix(1,0,0,-1,0,577)" stroke-width=".9" stroke-linecap="round" stroke-linejoin="round" fill="none" stroke="#1b4965" d="M615.82 340.08C615.82 342.67 617.95 344.8 620.54 344.8 623.14 344.8 625.26 342.67 625.26 340.08 625.26 337.48 623.14 335.36 620.54 335.36 617.95 335.36 615.82 337.48 615.82 340.08"/>
<path transform="matrix(1,0,0,-1,0,577)" d="M684.62 340.38C684.62 342.98 686.74 345.1 689.34 345.1 691.93 345.1 694.06 342.98 694.06 340.38 694.06 337.79 691.93 335.66 689.34 335.66 686.74 335.66 684.62 337.79 684.62 340.38" fill="#1b4965"/>
<path transform="matrix(1,0,0,-1,0,577)" stroke-width=".9" stroke-linecap="round" stroke-linejoin="round" fill="none" stroke="#1b4965" d="M684.62 340.38C684.62 342.98 686.74 345.1 689.34 345.1 691.93 345.1 694.06 342.98 694.06 340.38 694.06 337.79 691.93 335.66 689.34 335.66 686.74 335.66 684.62 337.79 684.62 340.38"/>
<path transform="matrix(1,0,0,-1,0,577)" d="M753.41 336.06C753.41 338.66 755.54 340.78 758.13 340.78 760.73 340.78 762.85 338.66 762.85 336.06 762.85 333.47 760.73 331.34 758.13 331.34 755.54 331.34 753.41 333.47 753.41 336.06" fill="#1b4965"/>
<path transform="matrix(1,0,0,-1,0,577)" stroke-width=".9" stroke-linecap="round" stroke-linejoin="round" fill="none" stroke="#1b4965" d="M753.41 336.06C753.41 338.66 755.54 340.78 758.13 340.78 760.73 340.78 762.85 338.66 762.85 336.06 762.85 333.47 760.73 331.34 758.13 331.34 755.54 331.34 753.41 333.47 753.41 336.06"/>
<path transform="matrix(1,0,0,-1,0,577)" stroke-width="1.49" stroke-linecap="butt" stroke-linejoin="round" fill="none" stroke="#1b4965" stroke-opacity=".502" d="M70.19 508.94V76.63"/>
<path transform="matrix(1,0,0,-1,0,577)" stroke-width="1.49" stroke-linecap="butt" stroke-linejoin="round" fill="none" stroke="#1b4965" stroke-opacity=".502" d="M132.1 505.89H145.86"/>
<path transform="matrix(1,0,0,-1,0,577)" stroke-width="1.49" stroke-linecap="butt" stroke-linejoin="round" fill="none" stroke="#1b4965" stroke-opacity=".502" d="M138.98 505.89V70.15"/>
<path transform="matrix(1,0,0,-1,0,577)" stroke-width="1.49" stroke-linecap="butt" stroke-linejoin="round" fill="none" stroke="#1b4965" stroke-opacity=".502" d="M132.1 70.15H145.86"/>
<path transform="matrix(1,0,0,-1,0,577)" stroke-width="1.49" stroke-linecap="butt" stroke-linejoin="round" fill="none" stroke="#1b4965" stroke-opacity=".502" d="M200.9 499.14H214.65"/>
<path transform="matrix(1,0,0,-1,0,577)" stroke-width="1.49" stroke-linecap="butt" stroke-linejoin="round" fill="none" stroke="#1b4965" stroke-opacity=".502" d="M207.78 499.14V63.32"/>
<path transform="matrix(1,0,0,-1,0,577)" stroke-width="1.49" stroke-linecap="butt" stroke-linejoin="round" fill="none" stroke="#1b4965" stroke-opacity=".502" d="M200.9 63.32H214.65"/>
<path transform="matrix(1,0,0,-1,0,577)" stroke-width="1.49" stroke-linecap="butt" stroke-linejoin="round" fill="none" stroke="#1b4965" stroke-opacity=".502" d="M269.69 437.67H283.45"/>
<path transform="matrix(1,0,0,-1,0,577)" stroke-width="1.49" stroke-linecap="butt" stroke-linejoin="round" fill="none" stroke="#1b4965" stroke-opacity=".502" d="M276.57 437.67V233.33"/>
<path transform="matrix(1,0,0,-1,0,577)" stroke-width="1.49" stroke-linecap="butt" stroke-linejoin="round" fill="none" stroke="#1b4965" stroke-opacity=".502" d="M269.69 233.33H283.45"/>
<path transform="matrix(1,0,0,-1,0,577)" stroke-width="1.49" stroke-linecap="butt" stroke-linejoin="round" fill="none" stroke="#1b4965" stroke-opacity=".502" d="M338.48 440.79H352.24"/>
<path transform="matrix(1,0,0,-1,0,577)" stroke-width="1.49" stroke-linecap="butt" stroke-linejoin="round" fill="none" stroke="#1b4965" stroke-opacity=".502" d="M345.36 440.79V239.8"/>
<path transform="matrix(1,0,0,-1,0,577)" stroke-width="1.49" stroke-linecap="butt" stroke-linejoin="round" fill="none" stroke="#1b4965" stroke-opacity=".502" d="M338.48 239.8H352.24"/>
<path transform="matrix(1,0,0,-1,0,577)" stroke-width="1.49" stroke-linecap="butt" stroke-linejoin="round" fill="none" stroke="#1b4965" stroke-opacity=".502" d="M407.28 436.89H421.04"/>
<path transform="matrix(1,0,0,-1,0,577)" stroke-width="1.49" stroke-linecap="butt" stroke-linejoin="round" fill="none" stroke="#1b4965" stroke-opacity=".502" d="M414.16 436.89V234.73"/>
<path transform="matrix(1,0,0,-1,0,577)" stroke-width="1.49" stroke-linecap="butt" stroke-linejoin="round" fill="none" stroke="#1b4965" stroke-opacity=".502" d="M407.28 234.73H421.04"/>
<path transform="matrix(1,0,0,-1,0,577)" stroke-width="1.49" stroke-linecap="butt" stroke-linejoin="round" fill="none" stroke="#1b4965" stroke-opacity=".502" d="M476.07 435.78H489.83"/>
<path transform="matrix(1,0,0,-1,0,577)" stroke-width="1.49" stroke-linecap="butt" stroke-linejoin="round" fill="none" stroke="#1b4965" stroke-opacity=".502" d="M482.95 435.78V238.17"/>
<path transform="matrix(1,0,0,-1,0,577)" stroke-width="1.49" stroke-linecap="butt" stroke-linejoin="round" fill="none" stroke="#1b4965" stroke-opacity=".502" d="M476.07 238.17H489.83"/>
<path transform="matrix(1,0,0,-1,0,577)" stroke-width="1.49" stroke-linecap="butt" stroke-linejoin="round" fill="none" stroke="#1b4965" stroke-opacity=".502" d="M544.87 430.88H558.63"/>
<path transform="matrix(1,0,0,-1,0,577)" stroke-width="1.49" stroke-linecap="butt" stroke-linejoin="round" fill="none" stroke="#1b4965" stroke-opacity=".502" d="M551.75 430.88V230.78"/>
<path transform="matrix(1,0,0,-1,0,577)" stroke-width="1.49" stroke-linecap="butt" stroke-linejoin="round" fill="none" stroke="#1b4965" stroke-opacity=".502" d="M544.87 230.78H558.63"/>
<path transform="matrix(1,0,0,-1,0,577)" stroke-width="1.49" stroke-linecap="butt" stroke-linejoin="round" fill="none" stroke="#1b4965" stroke-opacity=".502" d="M613.66 439.62H627.42"/>
<path transform="matrix(1,0,0,-1,0,577)" stroke-width="1.49" stroke-linecap="butt" stroke-linejoin="round" fill="none" stroke="#1b4965" stroke-opacity=".502" d="M620.54 439.62V240.54"/>
<path transform="matrix(1,0,0,-1,0,577)" stroke-width="1.49" stroke-linecap="butt" stroke-linejoin="round" fill="none" stroke="#1b4965" stroke-opacity=".502" d="M613.66 240.54H627.42"/>
<path transform="matrix(1,0,0,-1,0,577)" stroke-width="1.49" stroke-linecap="butt" stroke-linejoin="round" fill="none" stroke="#1b4965" stroke-opacity=".502" d="M682.46 446.9H696.22"/>
<path transform="matrix(1,0,0,-1,0,577)" stroke-width="1.49" stroke-linecap="butt" stroke-linejoin="round" fill="none" stroke="#1b4965" stroke-opacity=".502" d="M689.34 446.9V233.87"/>
<path transform="matrix(1,0,0,-1,0,577)" stroke-width="1.49" stroke-linecap="butt" stroke-linejoin="round" fill="none" stroke="#1b4965" stroke-opacity=".502" d="M682.46 233.87H696.22"/>
<path transform="matrix(1,0,0,-1,0,577)" stroke-width="1.49" stroke-linecap="butt" stroke-linejoin="round" fill="none" stroke="#1b4965" stroke-opacity=".502" d="M758.13 432.96V239.17"/>
</g>
<path transform="matrix(1,0,0,-1,0,577)" stroke-width="1.36" stroke-linecap="square" stroke-linejoin="round" fill="none" stroke="#000000" d="M35.79 41.04V531.22"/>
<text xml:space="preserve" transform="matrix(1 0 -0 1 0 577)" font-size="11" font-family="Nimbus Sans"><tspan y="-37.69" x="23.4">1</tspan></text>
<text xml:space="preserve" transform="matrix(1 0 -0 1 0 577)" font-size="11" font-family="Nimbus Sans"><tspan y="-121.72" x="23.4">2</tspan></text>
<text xml:space="preserve" transform="matrix(1 0 -0 1 0 577)" font-size="11" font-family="Nimbus Sans"><tspan y="-205.74" x="23.4">3</tspan></text>
<text xml:space="preserve" transform="matrix(1 0 -0 1 0 577)" font-size="11" font-family="Nimbus Sans"><tspan y="-289.77" x="23.4">4</tspan></text>
<text xml:space="preserve" transform="matrix(1 0 -0 1 0 577)" font-size="11" font-family="Nimbus Sans"><tspan y="-373.79" x="23.4">5</tspan></text>
<text xml:space="preserve" transform="matrix(1 0 -0 1 0 577)" font-size="11" font-family="Nimbus Sans"><tspan y="-457.82" x="23.4">6</tspan></text>
<path transform="matrix(1,0,0,-1,0,577)" stroke-width="1.36" stroke-linecap="butt" stroke-linejoin="round" fill="none" stroke="#000000" d="M32.3 41.64H35.79"/>
<path transform="matrix(1,0,0,-1,0,577)" stroke-width="1.36" stroke-linecap="butt" stroke-linejoin="round" fill="none" stroke="#000000" d="M32.3 125.66H35.79"/>
<path transform="matrix(1,0,0,-1,0,577)" stroke-width="1.36" stroke-linecap="butt" stroke-linejoin="round" fill="none" stroke="#000000" d="M32.3 209.69H35.79"/>
<path transform="matrix(1,0,0,-1,0,577)" stroke-width="1.36" stroke-linecap="butt" stroke-linejoin="round" fill="none" stroke="#000000" d="M32.3 293.72H35.79"/>
<path transform="matrix(1,0,0,-1,0,577)" stroke-width="1.36" stroke-linecap="butt" stroke-linejoin="round" fill="none" stroke="#000000" d="M32.3 377.74H35.79"/>
<path transform="matrix(1,0,0,-1,0,577)" stroke-width="1.36" stroke-linecap="butt" stroke-linejoin="round" fill="none" stroke="#000000" d="M32.3 461.77H35.79"/>
<path transform="matrix(1,0,0,-1,0,577)" stroke-width="1.36" stroke-linecap="square" stroke-linejoin="round" fill="none" stroke="#000000" d="M35.79 41.04H792.53"/>
<path transform="matrix(1,0,0,-1,0,577)" stroke-width="1.36" stroke-linecap="butt" stroke-linejoin="round" fill="none" stroke="#000000" d="M70.19 37.55V41.04"/>
<path transform="matrix(1,0,0,-1,0,577)" stroke-width="1.36" stroke-linecap="butt" stroke-linejoin="round" fill="none" stroke="#000000" d="M138.98 37.55V41.04"/>
<path transform="matrix(1,0,0,-1,0,577)" stroke-width="1.36" stroke-linecap="butt" stroke-linejoin="round" fill="none" stroke="#000000" d="M207.78 37.55V41.04"/>
<path transform="matrix(1,0,0,-1,0,577)" stroke-width="1.36" stroke-linecap="butt" stroke-linejoin="round" fill="none" stroke="#000000" d="M276.57 37.55V41.04"/>
<path transform="matrix(1,0,0,-1,0,577)" stroke-width="1.36" stroke-linecap="butt" stroke-linejoin="round" fill="none" stroke="#000000" d="M345.36 37.55V41.04"/>
<path transform="matrix(1,0,0,-1,0,577)" stroke-width="1.36" stroke-linecap="butt" stroke-linejoin="round" fill="none" stroke="#000000" d="M414.16 37.55V41.04"/>
<path transform="matrix(1,0,0,-1,0,577)" stroke-width="1.36" stroke-linecap="butt" stroke-linejoin="round" fill="none" stroke="#000000" d="M482.95 37.55V41.04"/>
<path transform="matrix(1,0,0,-1,0,577)" stroke-width="1.36" stroke-linecap="butt" stroke-linejoin="round" fill="none" stroke="#000000" d="M551.75 37.55V41.04"/>
<path transform="matrix(1,0,0,-1,0,577)" stroke-width="1.36" stroke-linecap="butt" stroke-linejoin="round" fill="none" stroke="#000000" d="M620.54 37.55V41.04"/>
<path transform="matrix(1,0,0,-1,0,577)" stroke-width="1.36" stroke-linecap="butt" stroke-linejoin="round" fill="none" stroke="#000000" d="M689.34 37.55V41.04"/>
<path transform="matrix(1,0,0,-1,0,577)" stroke-width="1.36" stroke-linecap="butt" stroke-linejoin="round" fill="none" stroke="#000000" d="M758.13 37.55V41.04"/>
<text xml:space="preserve" transform="matrix(1 0 -0 1 0 577)" font-size="11" font-family="Nimbus Sans"><tspan y="-26.86" x="67.13">8</tspan></text>
<text xml:space="preserve" transform="matrix(1 0 -0 1 0 577)" font-size="11" font-family="Nimbus Sans"><tspan y="-26.86" x="135.92">9</tspan></text>
<text xml:space="preserve" transform="matrix(1 0 -0 1 0 577)" font-size="11" font-family="Nimbus Sans"><tspan y="-26.86" x="201.66 207.776">10</tspan></text>
<text xml:space="preserve" transform="matrix(1 0 -0 1 0 577)" font-size="11" font-family="Nimbus Sans"><tspan y="-26.86" x="270.45 276.566">11</tspan></text>
<text xml:space="preserve" transform="matrix(1 0 -0 1 0 577)" font-size="11" font-family="Nimbus Sans"><tspan y="-26.86" x="339.25 345.366">12</tspan></text>
<text xml:space="preserve" transform="matrix(1 0 -0 1 0 577)" font-size="11" font-family="Nimbus Sans"><tspan y="-26.86" x="408.04 414.156">13</tspan></text>
<text xml:space="preserve" transform="matrix(1 0 -0 1 0 577)" font-size="11" font-family="Nimbus Sans"><tspan y="-26.86" x="476.84 482.956">14</tspan></text>
<text xml:space="preserve" transform="matrix(1 0 -0 1 0 577)" font-size="11" font-family="Nimbus Sans"><tspan y="-26.86" x="545.63 551.74606">15</tspan></text>
<text xml:space="preserve" transform="matrix(1 0 -0 1 0 577)" font-size="11" font-family="Nimbus Sans"><tspan y="-26.86" x="614.43 620.546">16</tspan></text>
<text xml:space="preserve" transform="matrix(1 0 -0 1 0 577)" font-size="11" font-family="Nimbus Sans"><tspan y="-26.86" x="683.22 689.336">17</tspan></text>
<text xml:space="preserve" transform="matrix(1 0 -0 1 0 577)" font-size="11" font-family="Nimbus Sans"><tspan y="-26.86" x="752.02 758.13607">18</tspan></text>
<text xml:space="preserve" transform="matrix(1 0 -0 1 0 577)" font-size="14" font-family="Nimbus Sans" font-weight="bold"><tspan y="-9.97" x="376.14 386.24803 394.94203 402.726 406.618 411.28 418.92399 426.70799 434.49198 439.728 447.512">Age (years)</tspan></text>
<text xml:space="preserve" transform="matrix(0 -1 1 0 0 577)" font-size="14" font-family="Nimbus Sans" font-weight="bold"><tspan y="17.03" x="170.69 180.238 188.022 195.806 201.252 208.896 217.59 225.374 229.26599 239.374 247.15799 251.04999 254.73198 262.516 266.408 275.746 283.53 288.976 296.76 304.544 313.098 316.99 325.54399 329.43598 341.882 349.666 353.55799 358.21998 366.77397 375.32795 383.88194 389.11796 396.90196">Average Daily Screen Time (hours)</tspan></text>
<text xml:space="preserve" transform="matrix(1 0 -0 1 0 577)" font-size="12" font-family="Nimbus Sans"><tspan y="-540.45" x="35.79 45.786005 52.458005 59.130006 65.802 69.138 74.838 81.509998 84.173999 90.84599 97.51799 103.51799 106.85399 115.51799 118.18199 121.51799 128.18999 131.52599 138.53398 145.20598 148.54198 154.54198 157.87798 164.54998 171.22197 177.89397 184.56597 188.56197 195.23397 198.56996 205.24196 211.55396 217.55396 220.21796 226.88996 230.22595 232.88996 239.56195 246.23395 249.56995 256.24195 262.91395 269.58595 272.92195 278.92195 288.91795 295.58995 302.26194 305.59794 312.26994 318.94194 325.61393 328.94993 332.28593 336.28193 342.95393 349.62593 356.2979 359.6339 362.2979 364.9619 371.6339">Mean values with &#x00b1;1 standard deviation and smoothed trend line</tspan></text>
<text xml:space="preserve" transform="matrix(1 0 -0 1 0 577)" font-size="16" font-family="Nimbus Sans" font-weight="bold"><tspan y="-559.04" x="35.79 45.566 50.014005 59.790006 69.566 75.79 84.686008 89.134 98.03001 102.478008 106.926 117.838008 126.73401 135.63 141.854 150.59 160.526 169.422 173.87 185.422 194.318 198.76599 202.97399 211.86998 216.31798 226.98998 235.88597 242.10997 251.00597 259.90199 269.67799 274.12599 283.90199 288.34999 302.57398 311.46998 315.91798 325.37397 334.26997 338.71797 350.26997 360.20597 369.10197 373.54997 385.99797 390.44596 395.77397 405.54997 409.99797 419.70997 428.60597 434.82997 439.27796 448.17396 457.94996 462.39796 466.84596 471.29396 476.62196">Figure 2. Average Daily Screen Time by Age with Variability</tspan></text>
</svg>
